<svg xmlns="http://www.w3.org/2000/svg" viewBox="0 0 2100 2100"><g fill="#eabbb1"><filter id="a"><feComponentTransfer><feFuncR slope=".75" type="linear"/><feFuncG slope=".75" type="linear"/><feFuncB slope=".75" type="linear"/></feComponentTransfer></filter><path d="M1797.5 2097.5c2.27-10.31 4.44-20.65 6.5-31 .33-4.67.67-9.33 1-14a932.46 932.46 0 0 0 7-37c2.65-28.23 5.15-56.4 7.5-84.5a624.16 624.16 0 0 0-5.5-51.5c-1.33-8.67-2.67-17.33-4-26-1.4-9.82-5.4-18.49-12-26-1.94-7.42-6.11-13.08-12.5-17a184.87 184.87 0 0 0-9.5-13c-20.42-20.07-42.92-37.57-67.5-52.5-7.81-4.4-16.14-7.4-25-9-9.53-5.93-19.2-11.6-29-17-17.49-6.12-33.82-14.45-49-25-.95-.48-1.95-.65-3-.5v-3a599.26 599.26 0 0 1-39-16 437.49 437.49 0 0 1-37-13.5 1386.86 1386.86 0 0 0-98-26 7.379 7.379 0 0 1-3-2c-5.7-.17-11.36-.67-17-1.5-16.25-3.64-32.58-6.8-49-9.5-42.37-11.92-82.37-29.26-120-52-7.13-6.13-14.3-12.29-21.5-18.5-8.97-12.54-18.14-24.87-27.5-37-.98.48-1.81 1.14-2.5 2-.63 8.52-1.8 16.86-3.5 25 .11 4.82.95 9.49 2.5 14 .45 15.84.28 31.51-.5 47-1.18.22-2.18-.11-3-1a387.732 387.732 0 0 1-8.5-44c-2.19-74.52 5.31-147.52 22.5-219 .27-3.73-1.4-6.06-5-7a62.846 62.846 0 0 1-8 4c-5.34 4.75-10.67 9.58-16 14.5-5.14 2.98-10.14 6.14-15 9.5-14.5 12.33-29.17 24.5-44 36.5a502.589 502.589 0 0 0-30 23c-8.42 2.1-16.42 5.1-24 9-8.33.67-16.67.67-25 0a60.04 60.04 0 0 0-9-5c-5.79-1.73-11.46-3.73-17-6a763.761 763.761 0 0 0-39-26c-8.975-7.64-17.975-15.3-27-23a67.503 67.503 0 0 0-19-16 1925.221 1925.221 0 0 0-28-34.5c-2.265-1.15-4.598-1.31-7-.5-1.137 5.08-1.304 10.25-.5 15.5 1.668 6.39 3.335 12.72 5 19a30.337 30.337 0 0 0 5 8 380.288 380.288 0 0 0 4 22c-.106 9.5.894 18.84 3 28 .182 8.58.682 17.08 1.5 25.5-.457.41-.791.91-1 1.5 1.448 2.46 2.114 5.12 2 8a279.937 279.937 0 0 0-2.5 35c-.216 1.88-.883 3.55-2 5a135.595 135.595 0 0 1-3 26 394.367 394.367 0 0 0-9 30c-3.67 5.34-7.337 10.68-11 16-1.725 5.78-4.225 11.11-7.5 16-1.322.17-2.489-.16-3.5-1 .349-8.07 2.349-15.74 6-23a371.589 371.589 0 0 1 8.5-34.5 86.225 86.225 0 0 0 2.5-17.5c.833-.83 1.667-1.67 2.5-2.5-1.733-1.92-3.9-3.08-6.5-3.5a32.879 32.879 0 0 0-8.5 3.5c-19.857 17.59-40.69 33.76-62.5 48.5a1357.578 1357.578 0 0 0-60.5 38.5 768.94 768.94 0 0 0-33 17 1354.225 1354.225 0 0 1-63 24c-16.727 3.69-33.393 7.36-50 11a3661.84 3661.84 0 0 0-119 45 51.673 51.673 0 0 1-12 3 5099.777 5099.777 0 0 0-69 30 235.56 235.56 0 0 0-35 21.5c-1.189.93-2.522 1.26-4 1 .219 1.18-.114 2.18-1 3-31.679 19.96-54.179 47.29-67.5 82a338.653 338.653 0 0 0-11 40 7.32 7.32 0 0 1-2 3c-1.877 9.14-2.71 18.47-2.5 28a107.62 107.62 0 0 0 2 23c-1.534 7.99-2.201 16.15-2 24.5a767.496 767.496 0 0 1 2.5 44.5c1.117 1.45 1.784 3.12 2 5 4.515 35.93 12.182 70.93 23 105 .495 1.97.662 3.97.5 6-4.014.17-8.014 0-12-.5-13.231-32.14-21.731-65.64-25.5-100.5-.667-49-.667-98 0-147 6.892-28.81 19.726-54.81 38.5-78a3073.328 3073.328 0 0 1 34.5-39c22.029-17.27 46.529-30.43 73.5-39.5a15.074 15.074 0 0 0 3-3.5 668.86 668.86 0 0 0 32-13.5 428.96 428.96 0 0 1 37-12.5c-.02-1.64.647-2.98 2-4 6.368-.95 12.701-1.95 19-3-.17-1.32.163-2.49 1-3.5 9.956-2.34 19.622-5.17 29-8.5a18.478 18.478 0 0 0 5-4 83.921 83.921 0 0 0 19-4 288.719 288.719 0 0 1 44-14.5 77.125 77.125 0 0 1 14-6c9.012-1.59 18.012-3.25 27-5 22.491-6.66 43.825-16.32 64-29a42.159 42.159 0 0 0 14-5.5c5.463-2.9 10.796-6.07 16-9.5 3.928-1.8 7.928-3.3 12-4.5v-3c5.76-3.41 11.76-6.41 18-9 1.353-1.02 2.02-2.36 2-4h4c-.17-1.32.163-2.49 1-3.5 32.555-17.21 62.222-38.54 89-64a18.61 18.61 0 0 0 6.5-3.5 419.046 419.046 0 0 0 13.5-36c.075-14.58-.091-29.24-.5-44-4.937-15.86-7.937-32.19-9-49a1681.648 1681.648 0 0 1-11-32 13.24 13.24 0 0 0-5-3c-1.201-7.38-5.034-13.05-11.5-17-10.004-17.2-21.837-33.2-35.5-48a211.584 211.584 0 0 0-22-34 552.004 552.004 0 0 1-37.5-81c-1.515-4.85-4.515-8.52-9-11-.929-1.19-1.262-2.52-1-4-17.373-3.01-34.04-8.17-50-15.5-10.266-9.55-18.766-20.38-25.5-32.5-6.113-5.72-10.779-12.38-14-20l-1-6a14.506 14.506 0 0 1-5-4 837.214 837.214 0 0 0-16-35c-2.451-23.16-3.117-46.494-2-70a156.836 156.836 0 0 1 4-18c3.22-8.952 8.72-16.118 16.5-21.5 7.53-1.65 15.03-3.15 22.5-4.5.875 2.715 2.708 4.048 5.5 4 .403 3.86.736 3.693 1-.5-5.223-35.211-7.89-70.378-8-105.5a788.022 788.022 0 0 1 15.5-119 462.865 462.865 0 0 1 24-64 1067.505 1067.505 0 0 0 37-65l18-24c2.14-1.987 4.64-3.32 7.5-4l4-6a445.549 445.549 0 0 1 42-37.5 357.424 357.424 0 0 0 26-19 131.55 131.55 0 0 1 14-6.5v-3a41.355 41.355 0 0 0 12.5-5c.414.457.914.791 1.5 1 14.603-7.574 29.937-13.574 46-18a520.675 520.675 0 0 1 64-13.5c16.36-.894 32.7-2.061 49-3.5 1.05.18 2.05.513 3 1 1.86-1.493 4.03-2.16 6.5-2a61.337 61.337 0 0 0 20.5 0c7.89.275 15.55 1.442 23 3.5 15.01.167 30.01.667 45 1.5a245.397 245.397 0 0 0 30 7v3c15.12 3.686 28.79 10.353 41 20 13.22 4.482 24.22 12.149 33 23a108.58 108.58 0 0 0 14 7 211.809 211.809 0 0 1 33 29c1.3 2.258 2.3 4.592 3 7h3c-.26 1.478.07 2.811 1 4 4.02 3.69 7.69 7.69 11 12a491.364 491.364 0 0 0 21 31c3.02 3.183 6.18 6.183 9.5 9 16.08 21.667 28.75 45 38 70 8.24 25.831 15.57 52.164 22 79 2.95 22.471 6.61 44.804 11 67 .37 16.866 1.2 33.7 2.5 50.5a586.348 586.348 0 0 1-5 55c.51 12.766 4.84 14.433 13 5 3.67-.667 7.33-.667 11 0 2.71 1.747 5.71 2.747 9 3a68.622 68.622 0 0 0 5.5 6.5 206.917 206.917 0 0 1 7 24 285.772 285.772 0 0 0 4 38c1.52 18.306 2.69 36.64 3.5 55-.01 9.2-2.18 17.87-6.5 26a78.722 78.722 0 0 0-12 17c-5.11 2.83-8.11 7.17-9 13-3.21 5.55-7.21 10.55-12 15-.81 3.32-2.31 6.32-4.5 9-9.66 10.49-19.16 21.16-28.5 32a46.938 46.938 0 0 0-5.5 3.5c-7.35 2.84-14.69 5.67-22 8.5.17 1.32-.16 2.49-1 3.5-3.63.81-6.63 2.65-9 5.5-2.78 5.89-5.28 11.89-7.5 18a306.03 306.03 0 0 0-19 35c-19.18 32.69-42.68 62.03-70.5 88a75.286 75.286 0 0 1-10.5 13 57.413 57.413 0 0 1-9 15 531.586 531.586 0 0 1-14.5 41c-1.88 7.99-3.71 15.99-5.5 24a30.44 30.44 0 0 1-5 8c-9.09 33.11-9.93 66.44-2.5 100a355.86 355.86 0 0 0 14.5 38c4.59 6.3 9.43 12.47 14.5 18.5 8.17 6.34 16.51 12.5 25 18.5.89.82 1.22 1.82 1 3a327.587 327.587 0 0 1 30 16c15.39 4.01 30.06 9.85 44 17.5 12.75 2.93 25.08 6.6 37 11 16.03 2.78 32.03 5.78 48 9a727.112 727.112 0 0 0 58 15c19.26 5.91 37.93 12.91 56 21 6.33 1.67 12.67 3.33 19 5a452.983 452.983 0 0 0 48 19c45.14 23.17 90.47 46.17 136 69 16.07 9.36 32.07 18.7 48 28 5.49 4.99 11.16 9.82 17 14.5 3.99 5.16 8.49 9.83 13.5 14a90.432 90.432 0 0 1 11 19c2.48 8.12 5.15 16.12 8 24 4.28 24.28 5.62 48.95 4 74-1.05 23.8-2.38 47.46-4 71-2.52 21.53-4.52 43.2-6 65a46.085 46.085 0 0 0-2 12 36.06 36.06 0 0 0-4 8c-1.2 7.82-2.7 15.49-4.5 23h-13Z" filter="url(#a)"/><path d="M1040.5 413.5c29.34-.239 58.34 1.928 87 6.5l17 1c20.2 6.646 39.54 15.479 58 26.5a252.884 252.884 0 0 0 32 21 61.998 61.998 0 0 0 5 5.5c12.89 8.659 24.56 18.826 35 30.5 7.3 9.901 14.47 19.901 21.5 30a332.244 332.244 0 0 1 31 43 134.07 134.07 0 0 1 17 22 334.905 334.905 0 0 0 10 24 1366.043 1366.043 0 0 0 26 86c-.29 15.429.87 30.762 3.5 46 2.96 3.764 4.62 8.098 5 13 .7 14.522 1.7 29.022 3 43.5a1000.597 1000.597 0 0 0-2.5 69.5 218.107 218.107 0 0 0-2.5 20 4376.816 4376.816 0 0 1-16.5 63c-3.56 18.284-7.23 36.62-11 55a391.893 391.893 0 0 1-10 34c-2.38 16.77-6.05 33.1-11 49a125.6 125.6 0 0 0-9.5 24c-5.05 8.11-9.55 16.44-13.5 25 .32 3.64-1.02 6.3-4 8-3.12 5.45-5.79 11.12-8 17-3.3 4.65-6.64 9.31-10 14-1.58 4.65-3.24 9.32-5 14-16 18.28-30.84 37.28-44.5 57-3.42 1.9-6.75 4.06-10 6.5a433.335 433.335 0 0 1-52 47c-10.24 10.77-21.57 20.1-34 28a1801.85 1801.85 0 0 1-62 51c-7.69 4.07-15.35 8.23-23 12.5-9.67 1.33-19.33 1.33-29 0-4.25-.52-8.25-1.69-12-3.5a721.048 721.048 0 0 1-44-26 924.576 924.576 0 0 1-76.5-68.5 8837.779 8837.779 0 0 1-75.5-83 180.67 180.67 0 0 0-21.5-29 178.041 178.041 0 0 0-12-19 576.622 576.622 0 0 1-25.5-58 120.119 120.119 0 0 1-7.5-27c-4.027-5.38-6.36-11.38-7-18-4.325-8.33-7.659-17-10-26-.667-.67-1.333-1.33-2-2l-11-41c-5.874-14.476-10.374-29.476-13.5-45a97.305 97.305 0 0 0-5.5-10 590.58 590.58 0 0 1-11-68c-.216-1.884-.883-3.551-2-5a539.78 539.78 0 0 1-3-57l-3-19c-2.194-35.756-.194-71.09 6-106a7.293 7.293 0 0 0 2-3c8.026-36.667 21.193-71.334 39.5-104 16.412-26.613 35.745-50.946 58-73 .886-.825 1.219-1.825 1-3 2.106-.179 3.772-1.179 5-3 2.738-4.049 5.404-8.049 8-12 3.951-2.596 7.951-5.262 12-8 1.821-1.228 2.821-2.894 3-5a4.934 4.934 0 0 0 3-.5 302.063 302.063 0 0 1 26-20 80.383 80.383 0 0 0 20-11 784.934 784.934 0 0 1 58-26 1354.024 1354.024 0 0 1 50-10c19.62.121 38.96-1.046 58-3.5Zm375 489a18.44 18.44 0 0 1 6 .5c9.18 4.206 14.02 11.373 14.5 21.5a749.298 749.298 0 0 1 2 87c-1.17 3.68-2.33 7.35-3.5 11-2.86-.45-5.36.22-7.5 2-2.26 5.53-5.26 10.53-9 15-.49 1.63-.66 3.3-.5 5-1.32-.17-2.49.16-3.5 1-3.78 6.8-7.11 13.8-10 21-4.26 3.33-6.92 7.67-8 13a183.121 183.121 0 0 1-18.5 21c-3.81 1.66-7.64 3.32-11.5 5-2.51-.59-4.51-1.92-6-4-.67-5.33-.67-10.67 0-16 1.28-8.28 2.61-16.62 4-25 1-2.33 2-4.67 3-7 .89-9.31 3.23-18.31 7-27 1.59-16.1 3.92-32.097 7-48l3-6a85.876 85.876 0 0 1 7-26 281.345 281.345 0 0 1 8.5-32c5.02-4.35 10.36-8.35 16-12Zm-752 10c8.567-.155 15.401 3.178 20.5 10 7.648 15.281 12.982 31.281 16 48a3062.727 3062.727 0 0 0 14 44 120.736 120.736 0 0 1 3 23c2.7 7.11 5.033 14.44 7 22 .946 2.81 2.613 5.15 5 7 1.417 8.92 4.417 17.25 9 25 .667 2.67.667 5.33 0 8a72.076 72.076 0 0 0-18.5-7 664.182 664.182 0 0 1-15-11.5 57.783 57.783 0 0 0-14-14.5 2495.44 2495.44 0 0 1-31.5-49 142.952 142.952 0 0 1-6-15c-1.667-2.33-3.333-4.667-5-7a1113.27 1113.27 0 0 0-1.5-38.5 894.75 894.75 0 0 0 1.5-19.5 73.413 73.413 0 0 1 4.5-16c3.442-3.459 7.109-6.459 11-9Z"/><path d="M1797.5 2097.5h-228c-.17-4.68 0-9.35.5-14a983.41 983.41 0 0 0 6-38c2.3-27.56 5.96-54.89 11-82 .91-.83 1.58-1.83 2-3 1.57-9.51 3.57-18.84 6-28 1.61-7.58 2.61-15.25 3-23 3.74-10.91 10.58-19.24 20.5-25 2.26-1.75 3.92-3.92 5-6.5-.14-.77-.48-1.44-1-2-7.38-3.12-14.71-3.12-22 0-4.53 4.43-9.86 7.6-16 9.5-2.92 2.26-4.42 5.26-4.5 9-5.06 5.3-4.56 9.97 1.5 14 1.16 3.28 1.32 6.62.5 10-1.17 3-2.83 5.67-5 8-.41 14.06-1.58 28.06-3.5 42-2.31 1.75-2.64 3.92-1 6.5-3.95 15.07-6.95 30.07-9 45 .41.95 1.07 1.61 2 2-1.63 4.1-2.63 8.44-3 13 .46.41.79.91 1 1.5a410.308 410.308 0 0 0-3.5 31c-.5 9.99-.67 19.99-.5 30h-1004c-6.517-24.34-11.351-49.34-14.5-75l-1.5-1.5c.928-3.55.928-6.89 0-10a127.734 127.734 0 0 0-4-13.5c-.453-3.23-.453-6.56 0-10a4.473 4.473 0 0 0-1.5-2 1694.241 1694.241 0 0 0-6.5-43.5c.46-1.3.794-2.63 1-4-.881-4-1.881-8-3-12 .733-1.77 1.067-3.6 1-5.5l-12-6c-2.042-1-2.375-2.34-1-4-4.176-4.75-9.509-7.42-16-8-3.667.49-5.167 2.49-4.5 6a553.548 553.548 0 0 0 11 16c.483.95.649 1.95.5 3 2.283.11 4.283.94 6 2.5a3.947 3.947 0 0 0-1 2 14.298 14.298 0 0 1 2.5 5.5c2.547 15.28 4.88 30.62 7 46 1.756.92 1.923 2.09.5 3.5 4.32 16.97 7.32 33.97 9 51 1.656 2.2 2.822 4.7 3.5 7.5.813 6.25 2.313 12.25 4.5 18-.006 11.96 2.661 23.29 8 34h-239a18.44 18.44 0 0 0-.5-6c-10.818-34.07-18.485-69.07-23-105-.216-1.88-.883-3.55-2-5a767.496 767.496 0 0 0-2.5-44.5c-.201-8.35.466-16.51 2-24.5a107.62 107.62 0 0 1-2-23c-.21-9.53.623-18.86 2.5-28a7.32 7.32 0 0 0 2-3 338.653 338.653 0 0 1 11-40c13.321-34.71 35.821-62.04 67.5-82 .886-.82 1.219-1.82 1-3 1.478.26 2.811-.07 4-1a235.56 235.56 0 0 1 35-21.5 5099.777 5099.777 0 0 1 69-30 51.673 51.673 0 0 0 12-3 3661.84 3661.84 0 0 1 119-45c16.607-3.64 33.273-7.31 50-11a1354.225 1354.225 0 0 0 63-24 768.94 768.94 0 0 1 33-17 1357.578 1357.578 0 0 1 60.5-38.5c21.81-14.74 42.643-30.91 62.5-48.5a32.879 32.879 0 0 1 8.5-3.5c2.6.42 4.767 1.58 6.5 3.5-.833.83-1.667 1.67-2.5 2.5a86.225 86.225 0 0 1-2.5 17.5 371.589 371.589 0 0 0-8.5 34.5c-3.651 7.26-5.651 14.93-6 23 1.011.84 2.178 1.17 3.5 1 3.275-4.89 5.775-10.22 7.5-16 3.663-5.32 7.33-10.66 11-16a394.367 394.367 0 0 1 9-30 135.595 135.595 0 0 0 3-26c1.117-1.45 1.784-3.12 2-5 .102-11.73.936-23.4 2.5-35 .114-2.88-.552-5.54-2-8 .209-.59.543-1.09 1-1.5a337.693 337.693 0 0 1-1.5-25.5 118.655 118.655 0 0 1-3-28 380.288 380.288 0 0 1-4-22 30.337 30.337 0 0 1-5-8c-1.665-6.28-3.332-12.61-5-19-.804-5.25-.637-10.42.5-15.5 2.402-.81 4.735-.65 7 .5 9.44 11.36 18.773 22.86 28 34.5a67.503 67.503 0 0 1 19 16c9.025 7.7 18.025 15.36 27 23a763.761 763.761 0 0 1 39 26c5.54 2.27 11.21 4.27 17 6a60.04 60.04 0 0 1 9 5c8.33.67 16.67.67 25 0 7.58-3.9 15.58-6.9 24-9 9.71-8.04 19.71-15.71 30-23 14.83-12 29.5-24.17 44-36.5 4.86-3.36 9.86-6.52 15-9.5 5.33-4.92 10.66-9.75 16-14.5 2.75-1.14 5.42-2.47 8-4 3.6.94 5.27 3.27 5 7-17.19 71.48-24.69 144.48-22.5 219 1.98 14.82 4.82 29.49 8.5 44 .82.89 1.82 1.22 3 1 .78-15.49.95-31.16.5-47a46.073 46.073 0 0 1-2.5-14c1.7-8.14 2.87-16.48 3.5-25 .69-.86 1.52-1.52 2.5-2 9.36 12.13 18.53 24.46 27.5 37 7.2 6.21 14.37 12.37 21.5 18.5 37.63 22.74 77.63 40.08 120 52 16.42 2.7 32.75 5.86 49 9.5 5.64.83 11.3 1.33 17 1.5.83.91 1.83 1.58 3 2a1386.86 1386.86 0 0 1 98 26 437.49 437.49 0 0 0 37 13.5 599.26 599.26 0 0 0 39 16v3c1.05-.15 2.05.02 3 .5 15.18 10.55 31.51 18.88 49 25 9.8 5.4 19.47 11.07 29 17 8.86 1.6 17.19 4.6 25 9 24.58 14.93 47.08 32.43 67.5 52.5 3.35 4.18 6.51 8.52 9.5 13 6.39 3.92 10.56 9.58 12.5 17 6.6 7.51 10.6 16.18 12 26 1.33 8.67 2.67 17.33 4 26a624.16 624.16 0 0 1 5.5 51.5c-2.35 28.1-4.85 56.27-7.5 84.5a932.46 932.46 0 0 1-7 37c-.33 4.67-.67 9.33-1 14-2.06 10.35-4.23 20.69-6.5 31Z"/><path d="M1569.5 2097.5h-10c-.17-10.01 0-20.01.5-30 .78-10.45 1.95-20.78 3.5-31-.21-.59-.54-1.09-1-1.5.37-4.56 1.37-8.9 3-13-.93-.39-1.59-1.05-2-2 2.05-14.93 5.05-29.93 9-45-1.64-2.58-1.31-4.75 1-6.5 1.92-13.94 3.09-27.94 3.5-42 2.17-2.33 3.83-5 5-8 .82-3.38.66-6.72-.5-10-6.06-4.03-6.56-8.7-1.5-14 .08-3.74 1.58-6.74 4.5-9 6.14-1.9 11.47-5.07 16-9.5 7.29-3.12 14.62-3.12 22 0 .52.56.86 1.23 1 2-1.08 2.58-2.74 4.75-5 6.5-9.92 5.76-16.76 14.09-20.5 25-.39 7.75-1.39 15.42-3 23-2.43 9.16-4.43 18.49-6 28a7.379 7.379 0 0 1-2 3c-5.04 27.11-8.7 54.44-11 82a983.41 983.41 0 0 1-6 38c-.5 4.65-.67 9.32-.5 14Zm-1014 0h-11c-5.339-10.71-8.006-22.04-8-34-2.187-5.75-3.687-11.75-4.5-18-.678-2.8-1.844-5.3-3.5-7.5-1.68-17.03-4.68-34.03-9-51 1.423-1.41 1.256-2.58-.5-3.5-2.12-15.38-4.453-30.72-7-46a14.298 14.298 0 0 0-2.5-5.5c.145-.77.478-1.44 1-2-1.717-1.56-3.717-2.39-6-2.5a4.939 4.939 0 0 0-.5-3 553.548 553.548 0 0 1-11-16c-.667-3.51.833-5.51 4.5-6 6.491.58 11.824 3.25 16 8-1.375 1.66-1.042 3 1 4l12 6c.067 1.9-.267 3.73-1 5.5 1.119 4 2.119 8 3 12-.206 1.37-.54 2.7-1 4 2.338 14.36 4.505 28.86 6.5 43.5a4.473 4.473 0 0 1 1.5 2c-.453 3.44-.453 6.77 0 10 1.562 4.36 2.895 8.86 4 13.5.928 3.11.928 6.45 0 10l1.5 1.5c3.149 25.66 7.983 50.66 14.5 75Z" filter="url(#a)"/></g><g fill="#c3932b"><path fill="#000" d="M845.5 931.5a348.013 348.013 0 0 1 70 11v3a316.352 316.352 0 0 0-70-9v-5Zm395 5a40.9 40.9 0 0 1 9 .5c1.14.741 1.14 1.575 0 2.5-22.67 1.316-45.17 4.649-67.5 10l-1.5-1a111.057 111.057 0 0 1 20-5.5 853.651 853.651 0 0 1 40-6.5Zm-282 48c-1.043-2.556-2.71-4.723-5-6.5-12.131-7.213-25.131-12.38-39-15.5a4.933 4.933 0 0 0-2.5 1c-.594 13.13-5.094 24.63-13.5 34.5a8.905 8.905 0 0 0-4 3 107.067 107.067 0 0 1-27 1c-5.502-1.83-10.002-4.993-13.5-9.5-5.822-8.016-9.988-16.683-12.5-26v-6c-11.845-.328-23.512.005-35 1a89.578 89.578 0 0 0 10.5 23l16 24c6.675 7.25 14.842 11.75 24.5 13.5 14.381.54 28.715 1.37 43 2.5v3a528.85 528.85 0 0 1-55-2.5c-8.948-3.53-16.781-8.7-23.5-15.5a552.218 552.218 0 0 1-36-52 4.934 4.934 0 0 1-.5-3c-1.478.262-2.811-.071-4-1a29.144 29.144 0 0 0 5-2.5 33237.34 33237.34 0 0 1 26.5-7.5c16.162.985 32.329 1.985 48.5 3a25.161 25.161 0 0 0 5.5-1c19.484 2.886 38.984 5.719 58.5 8.5a86.562 86.562 0 0 1 25 12 84.943 84.943 0 0 0 16.5 14.5 51.057 51.057 0 0 0 8 9 8.43 8.43 0 0 1 .5 4 207.685 207.685 0 0 1-17-9Zm-31-40c12.31 1.987 23.643 6.487 34 13.5 4.249 3.049 3.916 4.382-1 4a120.46 120.46 0 0 0-32-14c-.837-1.011-1.17-2.178-1-3.5Zm270 84c15.38-.04 30.72-.87 46-2.5 8.1-3.81 15.27-8.97 21.5-15.5 6-9.33 12-18.667 18-28 2.45-5.23 4.62-10.563 6.5-16a307.149 307.149 0 0 0-35-1c-1.42 14.347-7.42 26.847-18 37.5-1.94.81-3.94 1.31-6 1.5-3.74 2.92-8.08 3.76-13 2.5-19.35-5.69-30.52-18.519-33.5-38.5a4.922 4.922 0 0 0-2.5-1c-13.87 3.12-26.87 8.287-39 15.5a38.648 38.648 0 0 0-5 5.5c-3.49.91-6.49 2.576-9 5-2.32 1.316-4.66 2.649-7 4l-2-.5c4.33-5 8.67-10 13-15 5.26-3.251 9.92-7.251 14-12 7-4.998 14.66-8.665 23-11l59-8.5c1.81.472 3.64.806 5.5 1 16.17-1.045 32.33-2.045 48.5-3a729.824 729.824 0 0 1 29 9c1.71-1.109 2.38-.442 2 2h-4a4.949 4.949 0 0 1-.5 3c-7.33 11.333-14.67 22.667-22 34a139.9 139.9 0 0 0-14 18c-11.65 11.73-25.82 17.23-42.5 16.5-11.68.83-23.35.67-35-.5.74-.68 1.41-1.35 2-2Zm-35-79h5v3c-11.82 2.443-22.82 6.943-33 13.5-1 .667-2 .667-3 0a60.001 60.001 0 0 1 15-10c5.66-1.614 10.99-3.781 16-6.5Z"/><path fill="#fff" d="M806.5 961.5c11.488-.995 23.155-1.328 35-1v6c-.951-1.419-1.284-3.085-1-5h-34Z"/><path fill="#fff" d="M806.5 961.5h34c-.284 1.915.049 3.581 1 5 2.512 9.317 6.678 17.984 12.5 26 3.498 4.507 7.998 7.67 13.5 9.5 9.046.81 18.046.47 27-1a8.905 8.905 0 0 1 4-3c8.406-9.87 12.906-21.37 13.5-34.5a4.933 4.933 0 0 1 2.5-1c13.869 3.12 26.869 8.287 39 15.5 2.29 1.777 3.957 3.944 5 6.5.098 2.053-.569 3.72-2 5-5.187 2.673-9.687 6.34-13.5 11a4.939 4.939 0 0 0-.5 3c-1.333 1.33-2.667 2.67-4 4-10.682 6.17-22.015 11-34 14.5-1.256.42-1.923 1.25-2 2.5h-2a1040.205 1040.205 0 0 0-43-2.5c-9.658-1.75-17.825-6.25-24.5-13.5l-16-24a89.578 89.578 0 0 1-10.5-23Z"/><path d="M848.5 961.5c19.669-.167 39.336 0 59 .5 2.319 14.022-2.014 26.022-13 36-26.886 6.73-42.886-3.434-48-30.5.176-2.285.843-4.285 2-6Z"/><path fill="#fff" d="M1197.5 1028.5c-1.79.13-3.46-.2-5-1-12.07-3.46-23.41-8.46-34-15a28.17 28.17 0 0 0-5-5c-3.39-5.72-8.05-10.052-14-13a11.332 11.332 0 0 1-2-6 38.648 38.648 0 0 1 5-5.5c12.13-7.213 25.13-12.38 39-15.5.94.108 1.78.441 2.5 1 2.98 19.981 14.15 32.81 33.5 38.5 4.92 1.26 9.26.42 13-2.5 2.06-.19 4.06-.69 6-1.5 10.58-10.653 16.58-23.153 18-37.5 11.69-.332 23.35.001 35 1a164.168 164.168 0 0 1-6.5 16c-6 9.333-12 18.67-18 28-6.23 6.53-13.4 11.69-21.5 15.5a444.354 444.354 0 0 1-46 2.5Z"/><path d="M1230.5 1004.5c-5.68.17-11.34 0-17-.5-15.37-7.509-23.71-19.676-25-36.5 20.64-.941 41.31-1.274 62-1 .44 2.731.77 5.231 1 7.5-2.3 5.898-4.8 11.732-7.5 17.5-4.09 4.932-8.59 9.27-13.5 13Z"/><path fill="#000" d="M956.5 989.5c-1.803 7.14-6.136 12.14-13 15-.607-.12-.94-.46-1-1a4.939 4.939 0 0 1 .5-3c3.813-4.66 8.313-8.327 13.5-11Zm183 5c5.95 2.948 10.61 7.28 14 13-.65.3-1.32.64-2 1-5.82-3.15-9.82-7.82-12-14Zm-201 13c.262 1.48-.071 2.81-1 4a75.055 75.055 0 0 0-8.5 6c-6.495 2.16-12.995 4.33-19.5 6.5-2.31.5-4.643.66-7 .5.077-1.25.744-2.08 2-2.5 11.985-3.5 23.318-8.33 34-14.5Zm220 5c10.59 6.54 21.93 11.54 34 15-1.79 1.12-3.79 1.29-6 .5-6.98-2.33-13.98-4.66-21-7-1.97-2.32-4.3-4.15-7-5.5-1.28-1.11-1.28-2.11 0-3Z"/></g><path fill="#000" d="M994.5 928.5c.996-.086 1.829.248 2.5 1 10 16.332 16.33 33.999 19 53 2.92 21.76 3.42 43.43 1.5 65-.59.21-1.09.54-1.5 1-.76-2.27-.59-4.44.5-6.5a641.34 641.34 0 0 1-13-32.5c.52-9.34.86-18.669 1-28a20.078 20.078 0 0 1 1.5 6c.33 8.333.67 16.67 1 25 2.67 6 5.33 12 8 18 .33-.67.67-1.33 1-2 .93-22.96-1.74-45.959-8-69a253.779 253.779 0 0 0-13.5-31Zm83 226c3.81-.09 7.47.58 11 2 .62 2.21 1.62 4.21 3 6-.33.67-.67 1.33-1 2-3.93.78-7.76 1.11-11.5 1-1.22-.89-2.55-1.89-4-3-2.33 1.67-4.67 3.33-7 5-4.85 11.34-13.02 14.84-24.5 10.5-4.58-6.02-9.91-11.19-16-15.5-2.42.81-4.75 1.81-7 3a7.239 7.239 0 0 1-2.5-2c-1.73.75-3.57 1.25-5.5 1.5 1.33.33 2.67.67 4 1-3.95 1.79-7.95 1.79-12 0-2.42-2.11-2.42-4.11 0-6 4.25-2.21 8.75-3.71 13.5-4.5 2.74.78 5.57 1.28 8.5 1.5a249.77 249.77 0 0 0 24.5 8.5c2.18-.42 4.35-.92 6.5-1.5 6.39-4.03 13.06-7.2 20-9.5Z" style="opacity:.2"/><g fill="null"><path d="M1031.5 1251.5c12.05-.39 24.05.11 36 1.5 7.82 3.74 15.49 7.74 23 12 7.9.88 7.9 2.05 0 3.5-3.66-.98-7.33-.81-11 .5-26.03.94-52.03.44-78-1.5 8.17-2.09 15.17-6.26 21-12.5 2.96-1.6 5.96-2.77 9-3.5Z" style="opacity:.8"/><path d="M1036.5 1223.5c5.85 2.53 11.69 2.53 17.5 0 .83.33 1.67.67 2.5 1-7.33 6.89-14 6.56-20-1Z" style="opacity:.4"/><path fill="#fff" d="M1028.5 1253.5c11.67-.17 23.34 0 35 .5 7.65 2.49 14.32 6.49 20 12a22.593 22.593 0 0 1-7 2c-20.75 1.14-41.41.47-62-2 4.21-4.72 8.88-8.88 14-12.5Z"/><path d="M1081.5 1298.5c1.37-.16 2.71.01 4 .5-9.55 6.29-20.05 9.79-31.5 10.5-9.11-.81-18.28-1.65-27.5-2.5a4.502 4.502 0 0 0-2-1.5 6.816 6.816 0 0 1-4 1c.23-3.56-.61-3.89-2.5-1-1.76-.44-1.6-.94.5-1.5a20.69 20.69 0 0 1-6-2c.59-1.3 1.59-2.13 3-2.5a167.57 167.57 0 0 0 17 5.5c12.04.84 24.04.5 36-1 4.64-1.33 8.98-3.16 13-5.5Z" style="opacity:.4"/></g><path fill="#000036" d="M807.5 869.5c24.953.815 49.953 1.982 75 3.5a802.234 802.234 0 0 1 51 6c9.733.62 19.233.453 28.5-.5a87.056 87.056 0 0 1 16.5 3c-.632 8.642-5.299 14.475-14 17.5-9.52 4.191-19.52 6.024-30 5.5a2704.686 2704.686 0 0 0-57-6.5 886.69 886.69 0 0 0-91.5-13.5c-7.043-1.721-14.209-2.221-21.5-1.5a602.621 602.621 0 0 1-32 3 198.827 198.827 0 0 0-9.5 2.5c-1.826-.51-1.993-1.344-.5-2.5a221.594 221.594 0 0 1 36-10 638.346 638.346 0 0 0 49-6.5Zm431 2c33.37-1.867 66.37.633 99 7.5a519.564 519.564 0 0 1 37 12.5c-8.62-.753-17.29-2.253-26-4.5a367.871 367.871 0 0 0-42.5-2.5 750.286 750.286 0 0 0-77.5 12.5 608.323 608.323 0 0 1-96 8l-17-5c-1.17-2.696-3.17-4.363-6-5-1.39-1.171-2.23-2.671-2.5-4.5-.33-2.667-.67-5.333-1-8-.65 1.196-1.15 1.196-1.5 0a4.473 4.473 0 0 1 2-1.5 373.44 373.44 0 0 1 19.5-2.5 147.567 147.567 0 0 0 29.5.5 2871.52 2871.52 0 0 1 83-7.5Z"/><g fill="#ffe38f"><path d="M786.5 1537.5c.356 1.37 1.19 2.37 2.5 3a19.098 19.098 0 0 0 6.5 3 354.208 354.208 0 0 1 20 13.5 243.5 243.5 0 0 0 19 18c18.312 11.28 37.979 19.62 59 25a282.376 282.376 0 0 0 43 17c18.617 2.61 36.951 4.45 55 5.5 8.173-.3 16.51-.8 25-1.5 31.6-5.93 63.94-10.26 97-13 20.68-4.33 41.68-9.33 63-15 9.49-3.99 18.99-8.16 28.5-12.5 11.98-8.15 23.81-16.48 35.5-25 1.95-3.67 4.95-4.84 9-3.5a574.321 574.321 0 0 0 69 33c13.04 1.81 25.71 4.81 38 9 10.25 1.16 20.92 2.83 32 5a690.273 690.273 0 0 0 64 16c7.78 3.59 15.78 6.59 24 9 30.68 5.73 61.01 12.73 91 21 8.89 3.6 17.72 7.1 26.5 10.5 1.87-1.17 3.37-.67 4.5 1.5 43.39 17.03 84.39 38.19 123 63.5.88 1.26 1.88 2.43 3 3.5a131.805 131.805 0 0 1 33 24 8.765 8.765 0 0 0 5 1.5c2.04 3.55 4.71 6.72 8 9.5 17.17 11.97 31.67 26.47 43.5 43.5 1.82 1.9 3.82 3.57 6 5 3.08 6.49 6.41 12.82 10 19 7.21 21.5 13.38 43 18.5 64.5l-1 1c4.33 11.63 8.16 23.46 11.5 35.5 7.88 17.96 16.05 36.12 24.5 54.5 4.44 10.89 9.6 21.73 15.5 32.5a1376.95 1376.95 0 0 1 27.5 35c1.26 3.52 3.26 6.52 6 9 .8 1.58 1.3 3.24 1.5 5a25.52 25.52 0 0 1 5.5 6.5c-1.16 2.31-1.99 4.81-2.5 7.5a175.57 175.57 0 0 0-16.5 22h-358c2.54-23.38 5.71-46.71 9.5-70 1.63-17.63 2.63-35.3 3-53 3.49-24.8 11.15-48.13 23-70 8.83-10.17 19.33-18.01 31.5-23.5 2.7-3.04 5.7-5.7 9-8-.67-.17-1.33-.33-2-.5a259.03 259.03 0 0 0-20 9.5c-9.11 3.47-17.94 7.3-26.5 11.5a319.063 319.063 0 0 0-18 61c-1.37 17.66-2.71 35.33-4 53a491.57 491.57 0 0 0-7.5 90h-1017a469.942 469.942 0 0 0-9.5-48 2000.3 2000.3 0 0 0-20.5-122 84.266 84.266 0 0 1-13-12.5 100.203 100.203 0 0 1-12.5-11.5c1.981 6.27 5.315 11.94 10 17 5.404 7.97 9.57 16.47 12.5 25.5a937.404 937.404 0 0 0 19.5 113.5c4.47 12.54 8.636 25.2 12.5 38h-294a1634.523 1634.523 0 0 1-43-28 182.587 182.587 0 0 1-19-18.5c1.333-1.33 1.333-2.67 0-4 14.744-28.86 27.577-58.7 38.5-89.5a476.146 476.146 0 0 1 18.5-70.5v-14a99.175 99.175 0 0 1 3-11c-.568-3.25.098-6.42 2-9.5a76.26 76.26 0 0 1 0-7.5c1.463-3.77 2.796-7.6 4-11.5a3.595 3.595 0 0 0-1-1.5c4.175-11.84 7.842-23.51 11-35 1.93-5.72 4.597-11.39 8-17-.333-.33-.667-.67-1-1 22.268-35.58 52.934-61.58 92-78a213.945 213.945 0 0 0 17-10 1201.59 1201.59 0 0 1 80-26 536.466 536.466 0 0 1 68-24 751.378 751.378 0 0 1 63-21.5c4.259-1.32 8.593-2.48 13-3.5 8.18-2.87 16.18-6.04 24-9.5a1587.19 1587.19 0 0 0 73-26.5 1171.984 1171.984 0 0 0 49-25 262.56 262.56 0 0 1 33.5-21.5c1.585.54 3.085 1.21 4.5 2Zm98 558c-1.165 1.92-2.832 2.75-5 2.5 1.41-1.37 3.077-2.21 5-2.5Z"/><path d="M795.5 1543.5a19.098 19.098 0 0 1-6.5-3c-1.31-.63-2.144-1.63-2.5-3 1.289-1 2.622-.83 4 .5a40.062 40.062 0 0 0 5 5.5Zm-169 65c-7.82 3.46-15.82 6.63-24 9.5a184.166 184.166 0 0 0-13 3.5c.453-.96 1.119-1.79 2-2.5a153.006 153.006 0 0 1 35-10.5Zm-240 94a4.949 4.949 0 0 1 3 .5 159.586 159.586 0 0 1-16 8.5 4.486 4.486 0 0 1-2-1.5c5.371-2.02 10.371-4.52 15-7.5Zm1511 330c4.83 5 9.5 10.16 14 15.5-1.87.71-3.37.21-4.5-1.5-3.41-4.57-6.58-9.23-9.5-14Z"/><path d="M1562.5 2099.5h-2a491.57 491.57 0 0 1 7.5-90c1.29-17.67 2.63-35.34 4-53 3.97-20.94 9.97-41.27 18-61 8.56-4.2 17.39-8.03 26.5-11.5a259.03 259.03 0 0 1 20-9.5c.67.17 1.33.33 2 .5-3.3 2.3-6.3 4.96-9 8-12.17 5.49-22.67 13.33-31.5 23.5-11.85 21.87-19.51 45.2-23 70-.37 17.7-1.37 35.37-3 53a1330.17 1330.17 0 0 0-9.5 70Zm-1019 0h-1a812.145 812.145 0 0 0-12.5-38 937.404 937.404 0 0 1-19.5-113.5c-2.93-9.03-7.096-17.53-12.5-25.5-4.685-5.06-8.019-10.73-10-17 3.919 4.26 8.085 8.09 12.5 11.5a84.266 84.266 0 0 0 13 12.5 2000.3 2000.3 0 0 1 20.5 122 469.942 469.942 0 0 1 9.5 48Z" filter="url(#a)"/></g><g fill="#1e0900"><path d="M996.5 333.5a16.339 16.339 0 0 0 5 2c2.7 6.397 7.04 11.397 13 15-.17.992.16 1.658 1 2 .33 1 1 1.667 2 2 .01 1.517.68 2.684 2 3.5-12.44.848-24.602-.652-36.5-4.5l-14.5 5.5a173.462 173.462 0 0 0 24 3 204.709 204.709 0 0 1-27 21c-6.818 5.903-11.985 12.736-15.5 20.5 11.993-13.667 25.493-25.5 40.5-35.5 4.604-2.971 9.6-4.805 15-5.5a212.938 212.938 0 0 1 28 6.5c3.65.499 7.32.665 11 .5h1c-.09.996.25 1.829 1 2.5 2.54.339 5.04.839 7.5 1.5.97-.43 1.47-1.096 1.5-2h1c3.02.204 6.02.537 9 1 6.18 1.117 12.51 1.117 19 0 .67 0 1 .333 1 1-4.62.719-9.28 1.219-14 1.5 10.8 6.828 22.64 10.328 35.5 10.5a1037.49 1037.49 0 0 1 35.5-5c.3 2.104-.03 4.104-1 6a27.032 27.032 0 0 0-6 3.5 561.67 561.67 0 0 0 27 17c1.07.739 1.74 1.739 2 3-1.32 1.614-2.98 2.781-5 3.5 9.31 2.916 8.98 5.082-1 6.5-16.87 3.878-34.53 10.211-53 19a196.35 196.35 0 0 0-22 15c.33.167.67.333 1 .5a1031.15 1031.15 0 0 0 34-17.5c31.01-11.377 63.01-15.71 96-13a746.268 746.268 0 0 1 54 7 14.639 14.639 0 0 0-6-4l-18-3.5c-.54-2.738.46-4.572 3-5.5 8.98-3.806 18.31-5.472 28-5 6.78 8.39 10.62 17.89 11.5 28.5l-1.5 1.5c8.96 12.746 17.79 25.58 26.5 38.5a25.071 25.071 0 0 0 4.5 4 6.927 6.927 0 0 1 1 4c-1.07.934-2.4 1.268-4 1a899.026 899.026 0 0 1-37 4.5 49.693 49.693 0 0 0-15 5 786.84 786.84 0 0 0 55-8.5 257.448 257.448 0 0 1 46-1.5c17.36.547 31.53 7.381 42.5 20.5 5.44 9.483 9.6 19.483 12.5 30 .75 3.649-.58 5.149-4 4.5-1.58-2.295-3.58-3.628-6-4 3.54 3.921 5.88 8.421 7 13.5-8.01.166-16.01 0-24-.5a1009.356 1009.356 0 0 0-65-11.5c-3.81-1.145-7.81-1.312-12-.5 2.67.567 5.33 1.067 8 1.5 55.36 6.229 99.19 31.896 131.5 77 6.59 10.181 11.26 21.181 14 33 .8 1.759.63 3.426-.5 5a384.793 384.793 0 0 0-45-27.5 111.223 111.223 0 0 0-14-4.5c-2.42.219-3.42 1.552-3 4 10.62.263 20.29 3.429 29 9.5 16.54 12.229 28.38 28.063 35.5 47.5a31.16 31.16 0 0 1 4.5 5c2.34 8.015 4.68 16.015 7 24a765.792 765.792 0 0 1 7.5 63c.19-2.536.69-4.869 1.5-7 .32 6.25-.35 12.25-2 18 .16-2.357 0-4.69-.5-7a120.965 120.965 0 0 1-2.5 17c-.83.832-1.66.499-2.5-1a88.484 88.484 0 0 1-6-11 817.51 817.51 0 0 0-8-27 53.704 53.704 0 0 0-7-12c-.38.556-.88.889-1.5 1-.44-1.006-1.1-1.006-2 0 .17-3.35 0-6.683-.5-10-.67-.667-1.33-1.333-2-2-.33 4.667-.67 9.333-1 14a104.123 104.123 0 0 0-11-16c-.17.333-.33.667-.5 1a840.459 840.459 0 0 1 12.5 38c1.3 6.002 1.47 12.002.5 18a10.914 10.914 0 0 1-4.5-3 118.43 118.43 0 0 0-10-18c-7.44-36.996-20.77-71.663-40-104a150.36 150.36 0 0 0-17-23 934.531 934.531 0 0 1-1.5 43 684.231 684.231 0 0 1-3.5-25c-.95 7.307-1.62 14.64-2 22-1.73-13.436-6.23-25.769-13.5-37-.33.667-.67 1.333-1 2a92.926 92.926 0 0 0 6.5 17c4.65 17.38 4.31 34.714-1 52-3.88 2.75-7.22 2.083-10-2a2064.457 2064.457 0 0 1-7-34c-5.18-16.539-14.01-30.705-26.5-42.5-4.45-3.728-9.45-6.062-15-7 9.06 4.397 16.23 10.897 21.5 19.5 11.06 17.863 17.73 37.196 20 58a178.875 178.875 0 0 1-16.5-14.5c-3.62-3.005-7.62-5.005-12-6 14.58 17.95 31.91 32.617 52 44-27.81-1.602-52.14-11.602-73-30a280.127 280.127 0 0 1-19.5-20.5 2006.934 2006.934 0 0 1-32-51c-2.33-2.667-4.67-5.333-7-8a13.007 13.007 0 0 0-.5 5 604.168 604.168 0 0 0-50 10.5c2.21.191 4.21.691 6 1.5a68.231 68.231 0 0 1-14 1c2.13-.814 4.46-1.314 7-1.5-4.25-2.322-7.92-1.822-11 1.5a6.853 6.853 0 0 1-4-1 7.32 7.32 0 0 1-3 2 143.856 143.856 0 0 1-22-8c-2.32.415-4.65.749-7 1a212.543 212.543 0 0 0-30-2.5 288.173 288.173 0 0 1-38 18 564.64 564.64 0 0 1-53 8c-3 1.17-6 2.336-9 3.5a27.165 27.165 0 0 1-3.5-1c-2.85 2.342-6.02 4.009-9.5 5 9.79-15.47 21.79-29.137 36-41 3.55-2.357 6.05-5.357 7.5-9a85.31 85.31 0 0 0-7.5 8c-5.61 4.433-11.11 9.1-16.5 14 1.52-3.368 3.36-6.701 5.5-10a850.018 850.018 0 0 0-22.5 26c-.67-1-.67-2 0-3a249.279 249.279 0 0 0 13-33c.67-2.667.67-5.333 0-8a240.178 240.178 0 0 0-7 16 1035.193 1035.193 0 0 1-14.5 42c-4.865-2.106-9.532-4.772-14-8-4.801 1.819-9.801 2.486-15 2v5c-5.11 1.68-10.443 2.347-16 2-3.698-2.686-7.698-4.519-12-5.5a45.494 45.494 0 0 0 6 5.5c-9.221.155-18.555.155-28 0a1204.613 1204.613 0 0 1-26.5-8 51.727 51.727 0 0 1-9.5 1.5 572.683 572.683 0 0 1 33 7.5 21.435 21.435 0 0 1-7 1 180.78 180.78 0 0 0-33 10.5 613.42 613.42 0 0 1-44 8.5c1.777-1.1 3.777-1.934 6-2.5a56.67 56.67 0 0 1-15.5-2.5c-1.059.13-1.892.63-2.5 1.5l6 1-50 13 2 1c-3.48 2.27-7.147 2.937-11 2 3.769.766 3.602 1.599-.5 2.5-2.324-1.193-4.49-1.193-6.5 0a29.278 29.278 0 0 0-7 2.5c-12.781 8.378-26.448 15.044-41 20-16.734 7.086-31.567 16.919-44.5 29.5a56.81 56.81 0 0 0-9 15l-4.5 4.5c-1.244.456-2.077-.044-2.5-1.5a12.93 12.93 0 0 1-.5-5c1.523-5.473 2.357-11.14 2.5-17a173.85 173.85 0 0 1-3.5 14c-9.439-5.53-14.272-13.863-14.5-25a637.866 637.866 0 0 1 21.5-21 3.647 3.647 0 0 1 1.5 1l1 9c2.926-9.48 6.593-18.48 11-27l-37 29c-3.234-10.103-4.234-20.436-3-31 4.978-8.436 3.644-9.103-4-2a12.93 12.93 0 0 0-.5 5h-2c-1.221-.965-2.554-.798-4 .5a57.217 57.217 0 0 0-9.5 8.5 504.153 504.153 0 0 0-17 25c-3.739 5.573-8.572 9.906-14.5 13-1.155-2.946-1.321-5.946-.5-9 5.804-13.616 13.138-26.283 22-38l7-14a267.741 267.741 0 0 1 16-15 118.353 118.353 0 0 1 3-15 486.929 486.929 0 0 1 13.5-21l4-5c15.671-17.347 23.004-37.681 22-61v-1c3.096-4.273 6.43-8.44 10-12.5l-1.5-.5a573.136 573.136 0 0 0-30.5 24.5c-2.02-.451-4.02-1.284-6-2.5 2.104-1.872 3.437-4.205 4-7 2.556-1.043 4.723-2.71 6.5-5l15-21c13.992-12.419 29.825-21.919 47.5-28.5a258.234 258.234 0 0 1 48-14 112.97 112.97 0 0 0-15-.5c1.339-13.496 8.005-23.329 20-29.5 14.614-6.578 29.947-9.412 46-8.5 18.17.226 36.17 1.726 54 4.5-26.254-11.392-53.254-13.392-81-6a222.05 222.05 0 0 0-11 4.5c-1.345-.847-2.345-2.013-3-3.5 21.473-20.991 47.14-29.491 77-25.5v-42a45.296 45.296 0 0 1-.5-7l1 2c.497-2.646.664-5.313.5-8 1.78-1.49 2.446-3.49 2-6 .667 0 1-.333 1-1 2.575-2.345 3.575-5.345 3-9 1.306-1.973 2.973-3.639 5-5-5.479 16.499-5.312 33.166.5 50l9 18 4 28a1540.713 1540.713 0 0 0 2.5-53 157.785 157.785 0 0 1 9-18.5c-1.017-1.049-1.184-2.216-.5-3.5.779 2.597 1.279 2.597 1.5 0a1801.423 1801.423 0 0 0 36-35.5c23.11-18.862 49.444-26.028 79-21.5Z"/><g filter="url(#a)"><path d="M996.5 333.5c-29.556-4.528-55.89 2.638-79 21.5a1801.423 1801.423 0 0 1-36 35.5 50.937 50.937 0 0 1 8.5-17c16.265-19.716 36.432-33.883 60.5-42.5a644.569 644.569 0 0 0 21.5-2.5c6.846.668 13.68 1.501 20.5 2.5 1.937.122 3.27.955 4 2.5Zm5 2a82.553 82.553 0 0 1 12.5 8c.5 2.31.66 4.643.5 7-5.96-3.603-10.3-8.603-13-15Zm13 15c1.61.506 1.94 1.173 1 2-.84-.342-1.17-1.008-1-2Zm302 135a25.071 25.071 0 0 1-4.5-4 2390.723 2390.723 0 0 0-26.5-38.5l1.5-1.5c-.88-10.61-4.72-20.11-11.5-28.5-9.69-.472-19.02 1.194-28 5-2.54.928-3.54 2.762-3 5.5l18 3.5c2.34.837 4.34 2.171 6 4a746.268 746.268 0 0 0-54-7c-32.99-2.71-64.99 1.623-96 13a1031.15 1031.15 0 0 1-34 17.5c-.33-.167-.67-.333-1-.5a196.35 196.35 0 0 1 22-15c18.47-8.789 36.13-15.122 53-19 9.98-1.418 10.31-3.584 1-6.5 2.02-.719 3.68-1.886 5-3.5-.26-1.261-.93-2.261-2-3a561.67 561.67 0 0 1-27-17 27.032 27.032 0 0 1 6-3.5c.97-1.896 1.3-3.896 1-6a1037.49 1037.49 0 0 0-35.5 5c-12.86-.172-24.7-3.672-35.5-10.5 4.72-.281 9.38-.781 14-1.5 15.15-1.685 26.82-8.852 35-21.5a8.43 8.43 0 0 1 4-.5c-.9 4.958-3.23 9.124-7 12.5a134.06 134.06 0 0 1-23 14c5.12 1.647 10.12 3.48 15 5.5 20.12-4.191 40.29-8.191 60.5-12 3.01.545 3.18 1.711.5 3.5a530.574 530.574 0 0 0-27 15c1.33 1.333 2.67 2.667 4 4 10.89 3.777 20.89 9.11 30 16 12.77 7.612 26.43 10.278 41 8a1305.2 1305.2 0 0 0 39-12 97.432 97.432 0 0 1 22-3.5 84.507 84.507 0 0 0 6.5 23 3412.295 3412.295 0 0 0 31.5 59c-.12.607-.46.94-1 1Zm-299-131c3.44 2.259 6.77 4.759 10 7.5 5.99 2.001 11.66 4.501 17 7.5-3.68.165-7.35-.001-11-.5a212.938 212.938 0 0 0-28-6.5c-5.4.695-10.396 2.529-15 5.5-15.007 10-28.507 21.833-40.5 35.5 3.515-7.764 8.682-14.597 15.5-20.5a204.709 204.709 0 0 0 27-21 173.462 173.462 0 0 1-24-3l14.5-5.5c11.898 3.848 24.06 5.348 36.5 4.5-1.32-.816-1.99-1.983-2-3.5Zm-146 58a1540.713 1540.713 0 0 1-2.5 53l-4-28-9-18c-5.812-16.834-5.979-33.501-.5-50a46.762 46.762 0 0 1 6-12l1 5.5a176.796 176.796 0 0 1-7.5 32.5 43.397 43.397 0 0 0 1 17l8.5 15c.94-3.303 1.773-6.636 2.5-10 .996-2.16 2.496-3.827 4.5-5Zm174-43c2.69-.164 5.35.003 8 .5.92.278 1.58.778 2 1.5-.03.904-.53 1.57-1.5 2a58.897 58.897 0 0 0-7.5-1.5c-.75-.671-1.09-1.504-1-2.5Zm11 2c5.85-1.164 11.85-1.164 18 0-2.79.977-5.79 1.31-9 1-2.98-.463-5.98-.796-9-1Z"/><path d="M1074.5 371.5c3.54-.313 6.88.021 10 1-6.49 1.117-12.82 1.117-19 0 3.21.31 6.21-.023 9-1Zm-224 3c.575 3.655-.425 6.655-3 9 .428-3.285 1.428-6.285 3-9Zm-4 10c.446 2.51-.22 4.51-2 6 .095-2.286.762-4.286 2-6Zm258 22c16.2.026 32.2 1.859 48 5.5a255.13 255.13 0 0 0-39 3 527.575 527.575 0 0 0-45 17.5c-.33-.167-.67-.333-1-.5a93.39 93.39 0 0 1 16-9c7.5-5.01 14.5-10.51 21-16.5Zm-261-3v42c-29.86-3.991-55.527 4.509-77 25.5.655 1.487 1.655 2.653 3 3.5a222.05 222.05 0 0 1 11-4.5c27.746-7.392 54.746-5.392 81 6a381.697 381.697 0 0 0-54-4.5c-16.053-.912-31.386 1.922-46 8.5-11.995 6.171-18.661 16.004-20 29.5a112.97 112.97 0 0 1 15 .5 258.234 258.234 0 0 0-48 14c-17.675 6.581-33.508 16.081-47.5 28.5l-15 21c-1.777 2.29-3.944 3.957-6.5 5a50.937 50.937 0 0 1 8.5-17c17.797-21.819 40.297-36.486 67.5-44a79.42 79.42 0 0 1-.5-19c3.603-5.604 8.437-9.771 14.5-12.5a237.777 237.777 0 0 0 30-12.5 327.89 327.89 0 0 1 14-16.5c15.248-9.084 31.582-15.417 49-19a45.209 45.209 0 0 1 16 .5c.617-11.956 2.284-23.623 5-35Zm94 10c-.094 4.408-2.094 8.241-6 11.5-.667.667-1.333.667-2 0a143.397 143.397 0 0 1 8-11.5Zm336 23c3.92-.555 7.25.945 10 4.5-1.67.667-3.33.667-5 0a31.403 31.403 0 0 0-5-4.5Zm-301 0c1.149.291 1.816 1.124 2 2.5a204.646 204.646 0 0 1-8.5 26.5l-.5-2a45.747 45.747 0 0 0 1-12c-1.175.219-2.175-.114-3-1a78.41 78.41 0 0 0 9-14Zm-51-2c.543.06.876.393 1 1a3290.092 3290.092 0 0 0-31.5 70c-4.846 18.402-4.513 36.735 1 55a650.856 650.856 0 0 0 18 44c-28.829-38.114-33.496-79.114-14-123a792.863 792.863 0 0 1 25.5-47Zm332 27c13.93-1.78 25.59 2.387 35 12.5a327.383 327.383 0 0 0-22-7.5 745.504 745.504 0 0 1-41 1.5 20.504 20.504 0 0 1 8-3c6.96-.229 13.63-1.396 20-3.5Zm-53 9c4.8-.379 9.46.121 14 1.5a8.43 8.43 0 0 1-4 .5l-10-2Z"/><path d="m1200.5 470.5 10 2a85.782 85.782 0 0 0-19 4.5 999.24 999.24 0 0 1-41 14.5l-2-.5c14.67-6.667 29.33-13.333 44-20 2.65-.497 5.31-.664 8-.5Zm-251 2c.597.235.93.735 1 1.5a304.448 304.448 0 0 0-6.5 18.5c-.667-1.667-.667-3.333 0-5a408.247 408.247 0 0 0 5.5-15Zm524 220a31.16 31.16 0 0 0-4.5-5c-7.12-19.437-18.96-35.271-35.5-47.5-8.71-6.071-18.38-9.237-29-9.5-.42-2.448.58-3.781 3-4 4.77 1.193 9.44 2.693 14 4.5a384.793 384.793 0 0 1 45 27.5c1.13-1.574 1.3-3.241.5-5-2.74-11.819-7.41-22.819-14-33-32.31-45.104-76.14-70.771-131.5-77 1.07-.934 2.4-1.268 4-1 21.78 3.123 43.45 6.956 65 11.5 7.99.5 15.99.666 24 .5-1.12-5.079-3.46-9.579-7-13.5 2.42.372 4.42 1.705 6 4 3.42.649 4.75-.851 4-4.5a128.904 128.904 0 0 0-12.5-30c-10.97-13.119-25.14-19.953-42.5-20.5a257.448 257.448 0 0 0-46 1.5c-1.29.237-2.29-.096-3-1 1.6.268 2.93-.066 4-1 22.49-5.826 44.83-5.326 67 1.5 23.74 11.128 36.58 29.961 38.5 56.5.5 5.991.67 11.991.5 18a554.576 554.576 0 0 0-32-7.5c26.29 12.957 46.79 32.124 61.5 57.5a375.127 375.127 0 0 1 28.5 59.5c-.35 1.257-1.02 1.591-2 1a649.228 649.228 0 0 0-19.5-14.5c-.17.333-.33.667-.5 1a586.344 586.344 0 0 1 15 29c-.12.607-.46.94-1 1Z"/><path d="M1313.5 490.5c.71.904 1.71 1.237 3 1a786.84 786.84 0 0 1-55 8.5 49.693 49.693 0 0 1 15-5 899.026 899.026 0 0 0 37-4.5Zm-526 22c9.995-.502 19.995.664 30 3.5a209.774 209.774 0 0 1-30-3.5Zm432 1c1.15 1.767.48 2.933-2 3.5a224.865 224.865 0 0 1-23 7c2.33-2.167 5-3.834 8-5 5.93-1.391 11.6-3.224 17-5.5Zm165 9c2.82-.595 5.15.571 7 3.5-2.36-.798-4.69-1.965-7-3.5Zm-449 54h-1c0-18.679.5-37.346 1.5-56a672.55 672.55 0 0 1-.5 56Zm201-39a8.43 8.43 0 0 1 4 .5c-2.73 2.204-5.73 3.537-9 4 2.12-1.049 3.78-2.549 5-4.5Zm189 5c-1.6-.268-2.93.066-4 1-2.67-.433-5.33-.933-8-1.5 4.19-.812 8.19-.645 12 .5Zm-554 3c2.897-.375 5.563.125 8 1.5a1288.231 1288.231 0 0 1-69 16c19.864-8.017 40.198-13.85 61-17.5Zm346 6c.5-1.585 1.5-2.085 3-1.5-.74 1.039-1.74 1.539-3 1.5Zm0 0c-.76 1.762-2.1 2.762-4 3 .76-1.762 2.1-2.762 4-3Zm-4 3c-.76 1.762-2.1 2.762-4 3 .76-1.762 2.1-2.762 4-3Zm-4 3c-.5 1.585-1.5 2.085-3 1.5.74-1.039 1.74-1.539 3-1.5Zm-446 19c-.667 0-1 .333-1 1a180.95 180.95 0 0 0-21.5 18 451.517 451.517 0 0 1-17 23 175.953 175.953 0 0 1 11.5-33c1.98 1.216 3.98 2.049 6 2.5a573.136 573.136 0 0 1 30.5-24.5l1.5.5a169.838 169.838 0 0 0-10 12.5Z"/><path d="M662.5 577.5h1c1.004 23.319-6.329 43.653-22 61-1.098-1.101-1.265-2.434-.5-4 9.632-15.223 15.799-31.556 18.5-49h3v-8Zm494 3c5.19.089 5.19.755 0 2l-2-.5c.92-.278 1.58-.778 2-1.5Zm-222-4h1a51.569 51.569 0 0 0 1 7c-.838.342-1.172 1.008-1 2-.977-2.787-1.31-5.787-1-9Zm155-5c.74-.131 1.41.036 2 .5-14.77 13.42-27.27 28.587-37.5 45.5-7.34 8.085-8.34 7.085-3-3a181.114 181.114 0 0 1 10-15 225.656 225.656 0 0 1 28.5-28Zm80 22c9.13-4.057 18.46-7.89 28-11.5 2-.667 4-.667 6 0-4.59 1.864-9.26 3.53-14 5-1.33.667-1.33 1.333 0 2a216.772 216.772 0 0 0-20 4.5Zm-384-4c9.69-.332 19.356.002 29 1a422.005 422.005 0 0 1-44 4.5 132.046 132.046 0 0 0 15-5.5Zm36 2c1.293-.658 2.793-.992 4.5-1a262.954 262.954 0 0 1 36.5 6.5 1152.239 1152.239 0 0 1-41-5.5Zm234-3c.74-.131 1.41.036 2 .5-2.55 3.259-5.55 5.593-9 7 2.54-2.37 4.87-4.87 7-7.5Zm73 6c1.88-.107 2.21.393 1 1.5-10.14 5.93-10.47 5.43-1-1.5Zm88 2c14.37.67 28.7 1.836 43 3.5a438.448 438.448 0 0 0-84 6 420.361 420.361 0 0 0-57 23c-1.66.788-3.33 1.122-5 1a409.453 409.453 0 0 1 55-25c16.19-2.541 32.19-5.375 48-8.5Z"/><path d="M936.5 583.5a340.047 340.047 0 0 1 2.5 29 113.248 113.248 0 0 1-3.5-27c-.172-.992.162-1.658 1-2Zm347 20c15.71-2.237 29.71 1.763 42 12l-1.5 1a2864.779 2864.779 0 0 1-40.5-13Zm-242-70c.74-.131 1.41.036 2 .5a1135.019 1135.019 0 0 1-35.5 42.5c-10.692 13.045-18.525 27.712-23.5 44 .985 1.598 1.151 3.265.5 5-.667 1.333-1.333 1.333-2 0a125.414 125.414 0 0 1-11 26c-.635-26.469 3.698-52.136 13-77 .654-1.196 1.154-1.196 1.5 0a692.663 692.663 0 0 0-9.5 35 64.218 64.218 0 0 0 0 16 26.585 26.585 0 0 0 3.5-2c4.724-14.782 11.558-28.449 20.5-41a1092.245 1092.245 0 0 1 40.5-49Zm128 60a1935.78 1935.78 0 0 1-42 24.5c-1 .667-2 .667-3 0a818.622 818.622 0 0 1 33-20 52.22 52.22 0 0 1 12-4.5Zm74 17c17.91-1.602 35.91-1.102 54 1.5 1.79.196 3.12 1.029 4 2.5-.67.333-1.33.667-2 1a1276.88 1276.88 0 0 0-56-5Zm-224-3c.88-.131 1.54.202 2 1-2.79 4.089-3.46 3.755-2-1Zm7 23c-2.14 3.299-3.98 6.632-5.5 10 5.39-4.9 10.89-9.567 16.5-14v1c-14.21 11.863-26.21 25.53-36 41-1.34 4.01-2.674 8.01-4 12h-3a34.163 34.163 0 0 1 1-10c5.09-13.779 9.93-27.779 14.5-42a240.178 240.178 0 0 1 7-16c.67 2.667.67 5.333 0 8a249.279 249.279 0 0 1-13 33c-.67 1-.67 2 0 3a850.018 850.018 0 0 1 22.5-26Zm86-32c1.53.017 2.03.684 1.5 2-2.83 2.833-5.67 5.667-8.5 8.5l3 1a48.439 48.439 0 0 1-7 4.5 3.595 3.595 0 0 1-1.5-1c-10.46 11.164-21.96 20.664-34.5 28.5a332.87 332.87 0 0 1 40-35c2.95-2.436 5.28-5.269 7-8.5Zm-35 19a4.939 4.939 0 0 1 3 .5c-3.3 4.589-4.3 4.422-3-.5Zm26 6c2.98-4.133 6.81-7.466 11.5-10 .16 1.887-.67 3.387-2.5 4.5a31.46 31.46 0 0 1-9 5.5Zm98-8c2.42-.308 4.76.026 7 1a1011.398 1011.398 0 0 1-41.5 6 56.884 56.884 0 0 0-6.5-1.5c13.92-.966 27.59-2.8 41-5.5Zm-317 7-6 2a145.053 145.053 0 0 1-17-.5l-4-2a169.402 169.402 0 0 1 27 .5Zm188-2c2.34.275 2.34 1.108 0 2.5 2.4.805 2.23 1.638-.5 2.5-3.1-1.84-2.93-3.507.5-5Zm-59-34c1.5-.085 2.5.581 3 2-4.74 4.478-8.24 9.811-10.5 16-7.72 19.602-11.72 39.935-12 61-1.236-.899-2.07-2.066-2.5-3.5a44.7 44.7 0 0 0 1.5-17.5c-.39 3.569-1.39 6.903-3 10a189.33 189.33 0 0 1 4-36l1 17c3.71-17.301 9.88-33.634 18.5-49Zm24 41v-1a85.31 85.31 0 0 1 7.5-8c-1.45 3.643-3.95 6.643-7.5 9Z"/><path d="m884.5 622.5 9 1.5a112.97 112.97 0 0 1-15 .5l6-2Zm38 3c1.996-1.188 2.829-.521 2.5 2-.708-.881-1.542-1.547-2.5-2Zm140 2c-3.93 2.111-6.77 4.778-8.5 8-1.36-.758-2.53-.258-3.5 1.5 1.02 1.367.52 2.2-1.5 2.5-1.06-.13-1.89-.63-2.5-1.5 9.93-10.412 20.93-19.078 33-26a382.927 382.927 0 0 0-17 15.5Zm95-3c3.1-.087 3.43.413 1 1.5.33.333.67.667 1 1-2.05.325-4.05-.009-6-1 1.56-.21 2.89-.71 4-1.5Zm-54-1c-1.06 2.257-2.73 3.423-5 3.5 1.29-1.802 2.96-2.969 5-3.5Zm65 4c.01-2.501.68-2.668 2-.5-.59.464-1.26.631-2 .5Zm-270-1c.06-.543.393-.876 1-1a79.758 79.758 0 0 1 17 8.5 9.454 9.454 0 0 0-1.5 2.5 139 139 0 0 0-16.5-10Zm128 4c.19-1.696 1.02-3.029 2.5-4 .28 1.912-.55 3.246-2.5 4Z"/><path d="M1062.5 627.5c.74-.131 1.41.036 2 .5-.97 1.678-2.3 2.345-4 2 .88-.708 1.55-1.542 2-2.5Zm84 1c1-1.213 2-1.046 3 .5-1.08.47-2.08.303-3-.5Zm22-1c-3.1 1.448-6.43 1.948-10 1.5a31.297 31.297 0 0 1 10-1.5Zm-57-4c.88-.131 1.54.202 2 1-3.89 5.088-8.89 8.255-15 9.5 4.77-3.04 9.1-6.54 13-10.5Zm115 1c4.72-.275 5.05.559 1 2.5a133.216 133.216 0 0 1-19 5c6.2-2.276 12.2-4.776 18-7.5Zm-241 3c1.121 1.816 1.621 3.816 1.5 6-1.319-1.75-1.819-3.75-1.5-6Zm101 1c.65.591 1.32 1.257 2 2 1.58-1.14 3.24-1.64 5-1.5-3.35 4.498-7.69 7.165-13 8a40.674 40.674 0 0 0 6-8.5Zm-161 4c1.996-1.188 2.829-.521 2.5 2-.708-.881-1.542-1.547-2.5-2Zm-88 0c23.922-.275 47.589 2.892 71 9.5a66.589 66.589 0 0 1 17 7 280.627 280.627 0 0 1-32-8 696.696 696.696 0 0 0-56-8.5Zm-176 10a120.087 120.087 0 0 1 9-9.5c1-.667 2-.667 3 0a155.012 155.012 0 0 1-12 9.5Zm287-9c7.867 6.7 14.867 14.2 21 22.5-11.505-3.013-18.505-10.513-21-22.5Zm111 1c.74-.131 1.41.036 2 .5-1.27 1.983-2.93 2.983-5 3a14.698 14.698 0 0 0 3-3.5Zm-128-1a6880.569 6880.569 0 0 0 19 17.5c-8.969-2.796-15.303-8.629-19-17.5Zm158 5a4.939 4.939 0 0 1 3 .5 55.747 55.747 0 0 1-4.5 5.5 4.486 4.486 0 0 1-1.5-2c1.02-1.352 2.02-2.685 3-4Zm368 112c-1.07 10.039-.9 20.039.5 30a931.938 931.938 0 0 1 9 37c3.83 6.333 7.67 12.667 11.5 19-1.51 1.247-3.01 1.247-4.5 0a328.516 328.516 0 0 0-24-36 115.841 115.841 0 0 1-6-13c1.15 38.356.65 76.689-1.5 115h-3c-1.99-12.477-9.32-17.977-22-16.5-15.33 8.668-26.5 21.168-33.5 37.5-11.31 30.358-18.47 61.691-21.5 94h-3a844.683 844.683 0 0 0-12.5-129c-2.72-34.329-5.38-68.663-8-103a394.032 394.032 0 0 1-6.5-55c-16.1-5.923-29.6-15.59-40.5-29a581.212 581.212 0 0 1-32-48 765.151 765.151 0 0 0-16.5-20.5 544.321 544.321 0 0 0-26 7 118.26 118.26 0 0 1-19 2.5c-1.79-.809-3.79-1.309-6-1.5a604.168 604.168 0 0 1 50-10.5c-.16-1.699.01-3.366.5-5 2.33 2.667 4.67 5.333 7 8a2006.934 2006.934 0 0 0 32 51 280.127 280.127 0 0 0 19.5 20.5c20.86 18.398 45.19 28.398 73 30-20.09-11.383-37.42-26.05-52-44 4.38.995 8.38 2.995 12 6a178.875 178.875 0 0 0 16.5 14.5c-2.27-20.804-8.94-40.137-20-58-5.27-8.603-12.44-15.103-21.5-19.5 5.55.938 10.55 3.272 15 7 12.49 11.795 21.32 25.961 26.5 42.5 2.24 11.354 4.57 22.688 7 34 2.78 4.083 6.12 4.75 10 2 5.31-17.286 5.65-34.62 1-52a92.926 92.926 0 0 1-6.5-17c.33-.667.67-1.333 1-2 7.27 11.231 11.77 23.564 13.5 37 .38-7.36 1.05-14.693 2-22a684.231 684.231 0 0 0 3.5 25 934.531 934.531 0 0 0 1.5-43 150.36 150.36 0 0 1 17 23c19.23 32.337 32.56 67.004 40 104a118.43 118.43 0 0 1 10 18 10.914 10.914 0 0 0 4.5 3c.97-5.998.8-11.998-.5-18a840.459 840.459 0 0 0-12.5-38c.17-.333.33-.667.5-1a104.123 104.123 0 0 1 11 16c.33-4.667.67-9.333 1-14 .67.667 1.33 1.333 2 2 .5 3.317.67 6.65.5 10Zm-406-110c.74-.131 1.41.036 2 .5-.97 1.678-2.3 2.345-4 2 .88-.708 1.55-1.542 2-2.5Zm133 3h-4c3.08-3.322 6.75-3.822 11-1.5-2.54.186-4.87.686-7 1.5Zm-523-1c-.346 1.863-1.346 2.696-3 2.5.578-1.417 1.578-2.25 3-2.5Zm416-3c.57 4.742-1.27 8.742-5.5 12a94.664 94.664 0 0 1 5.5-12Zm-58 8c.54.06.88.393 1 1-4.61 5.118-4.94 4.785-1-1Zm11-5c.87 2.835.87 5.502 0 8 13.6-10.964 14.27-10.131 2 2.5-8.87 5.356-10.37 4.189-4.5-3.5a1303.7 1303.7 0 0 0 2.5-7Zm-100 8c.235-.597.735-.93 1.5-1a755.293 755.293 0 0 1 18.5 5.5l-4 1c5.214 1.274 9.881 3.607 14 7-11.242-1.119-21.242-5.286-30-12.5Zm-70 1c2.272-1.264 4.605-1.098 7 .5-2.429.703-4.762.537-7-.5Zm-214 2c3.407-.375 3.907.625 1.5 3-4.165 5.541-9.332 9.375-15.5 11.5a284.889 284.889 0 0 0 14-14.5Zm368 0c1.19 1.996.52 2.829-2 2.5.88-.708 1.55-1.542 2-2.5Zm-196 2c3.149-.289 6.149.211 9 1.5a214.42 214.42 0 0 1-31 5 262.726 262.726 0 0 0 22-6.5Zm-124 1a8.43 8.43 0 0 1 4 .5 128.55 128.55 0 0 1-16.5 8.5c-.684-1.284-.517-2.451.5-3.5a99.697 99.697 0 0 0 12-5.5Zm218 3c.235-.597.735-.93 1.5-1 2.264.354 4.098 1.354 5.5 3l-1 1-6-3Zm21 4c1.221-.965 2.554-.798 4 .5-1.428.579-2.762.412-4-.5Zm-17 8c-.709.904-1.709 1.237-3 1a572.683 572.683 0 0 0-33-7.5 51.727 51.727 0 0 0 9.5-1.5c8.809 2.77 17.643 5.437 26.5 8Zm-75-4c3.871-.315 7.538.018 11 1a159.027 159.027 0 0 1-27 .5c-3.044-.359-3.378-1.026-1-2 4.926-1.036 9.593-.536 14 1.5a5.576 5.576 0 0 1 3-1Z"/><path d="M841.5 667.5a128.532 128.532 0 0 1 32 0c-3.213-.31-6.213.023-9 1h-12c-3.462-.982-7.129-1.315-11-1Z"/><path d="M864.5 668.5c2.787-.977 5.787-1.31 9-1a72.367 72.367 0 0 1 12 .5l-2 1c7.972.658 15.639 2.158 23 4.5a340.36 340.36 0 0 1-42-5Zm86 3c-1.847 1.073-3.847 1.073-6 0a45.494 45.494 0 0 1-6-5.5c4.302.981 8.302 2.814 12 5.5Zm-133 0c.597-.639 1.43-.972 2.5-1 3.481.623 6.981 1.123 10.5 1.5-4.387.706-8.72.54-13-.5Zm30 5c9.491-1.158 19.158-1.325 29-.5-1.788 1.088-3.788 1.588-6 1.5a183.85 183.85 0 0 0-23-1Zm30 0c1.221-.965 2.554-.798 4 .5-1.428.579-2.762.412-4-.5Zm429-7c5.52 5.758 10.02 12.091 13.5 19-5.5-5.689-10-12.022-13.5-19Zm-492 10c1.478-.262 2.811.071 4 1-3.845 1.796-7.845 2.63-12 2.5a102.128 102.128 0 0 0 8-3.5Zm-2 5c14.855-1.292 29.855-1.125 45 .5a405.48 405.48 0 0 1-45-.5Zm-45 5v-1a73.643 73.643 0 0 1 15.5-3c10.826.843 21.659 1.509 32.5 2v3a211.597 211.597 0 0 0-48-1Z"/><path d="M829.5 692.5a399.858 399.858 0 0 1-44 10.5 170.782 170.782 0 0 0-22 7.5c-1.642-1.581-3.642-2.247-6-2 2.01-1.193 4.176-1.193 6.5 0 4.102-.901 4.269-1.734.5-2.5 3.853.937 7.52.27 11-2l-2-1 50-13-6-1c.608-.87 1.441-1.37 2.5-1.5a56.67 56.67 0 0 0 15.5 2.5c-2.223.566-4.223 1.4-6 2.5Zm-62-4v1c-3.739 1.766-7.739 2.599-12 2.5 4.035-1.174 8.035-2.341 12-3.5Z"/><path d="M647.5 770.5c.904.709 1.237 1.709 1 3a12.93 12.93 0 0 0 .5 5c.423 1.456 1.256 1.956 2.5 1.5l4.5-4.5a56.81 56.81 0 0 1 9-15c12.933-12.581 27.766-22.414 44.5-29.5 14.552-4.956 28.219-11.622 41-20a29.278 29.278 0 0 1 7-2.5c2.358-.247 4.358.419 6 2-12.504 6.685-20.337 17.019-23.5 31a155.498 155.498 0 0 0-3 20 690.45 690.45 0 0 1-6 81c-.381 57.349-.548 114.682-.5 172-6.224-24.836-14.39-49.17-24.5-73-6.64-16.467-16.14-30.967-28.5-43.5-3.653-2.885-7.82-4.385-12.5-4.5a383.576 383.576 0 0 1-15.5 3c-3.406-11.876-5.073-24.043-5-36.5a1929.175 1929.175 0 0 1 4-66.5c-1.478-.262-2.811.071-4 1a110.03 110.03 0 0 0-15 15.5 8.43 8.43 0 0 1-4 .5c-.02-4.634 1.146-8.967 3.5-13a510.186 510.186 0 0 1 14.5-22c.803-.923.97-1.923.5-3a192.01 192.01 0 0 0-16-17 27.603 27.603 0 0 1-1.5 5c-3.808 14.73-8.641 30.73-14.5 48l-1 57a302.87 302.87 0 0 1-5-67 155.498 155.498 0 0 1 3-20 250.972 250.972 0 0 1 16-33c.14-12.35-.36-24.684-1.5-37a12.93 12.93 0 0 1 .5-5c7.644-7.103 8.978-6.436 4 2-1.234 10.564-.234 20.897 3 31l37-29c-4.407 8.52-8.074 17.52-11 27l-1-9a3.647 3.647 0 0 0-1.5-1 637.866 637.866 0 0 0-21.5 21c.228 11.137 5.061 19.47 14.5 25Zm-10-127a486.929 486.929 0 0 0-13.5 21 118.353 118.353 0 0 0-3 15 267.741 267.741 0 0 0-16 15l-7 14c-8.862 11.717-16.196 24.384-22 38-.821 3.054-.655 6.054.5 9 5.928-3.094 10.761-7.427 14.5-13a504.153 504.153 0 0 1 17-25 57.217 57.217 0 0 1 9.5-8.5c1.446-1.298 2.779-1.465 4-.5a2141.06 2141.06 0 0 0-33.5 43 172.372 172.372 0 0 0-20 38c-2.577 6.928-2.91 13.928-1 21l1-1c.667 4 .667 8 0 12-10.216-16.309-12.216-33.643-6-52a183.264 183.264 0 0 1 12-28 1211.503 1211.503 0 0 1 31-50c4.143-6.275 7.143-12.942 9-20-9.493 4.913-18.993 5.08-28.5.5 13.24-.413 25.24-4.413 36-12a369.115 369.115 0 0 0 16-16.5Zm791 67c1.34.815 2.34 1.982 3 3.5-1.98-.033-2.98-1.2-3-3.5Zm52 6c4.67 5.019 7.51 11.019 8.5 18 1.8 12.645 1.97 25.312.5 38-.81 2.131-1.31 4.464-1.5 7a765.792 765.792 0 0 0-7.5-63Zm-42 14c1.59 1.135 1.92 2.469 1 4-.93-1.189-1.26-2.522-1-4Zm46 70c.67.667 1.33 1.333 2 2a158.501 158.501 0 0 1-2 15c-.83-1-1.67-2-2.5-3a807.726 807.726 0 0 1-22.5-64c.62-.111 1.12-.444 1.5-1a53.704 53.704 0 0 1 7 12 817.51 817.51 0 0 1 8 27 88.484 88.484 0 0 0 6 11c.84 1.499 1.67 1.832 2.5 1Z"/><path d="M648.5 773.5c.237-1.291-.096-2.291-1-3a173.85 173.85 0 0 0 3.5-14c-.143 5.86-.977 11.527-2.5 17Zm839 17c-.33 4-.67 8-1 12-.67-.667-1.33-1.333-2-2a120.965 120.965 0 0 0 2.5-17c.5 2.31.66 4.643.5 7Z"/></g><path d="M756.5 477.5c1.025.397 1.192 1.063.5 2l-16 14a200.127 200.127 0 0 1-3.5 17 511.94 511.94 0 0 1-14.5 5 67.93 67.93 0 0 1-4.5-10c3.41-8.909 9.41-15.409 18-19.5a236.044 236.044 0 0 0 20-8.5Z"/></g></svg>