<svg xmlns="http://www.w3.org/2000/svg" viewBox="0 0 2100 2100"><g fill="#febda7"><filter id="a"><feComponentTransfer><feFuncR slope=".75" type="linear"/><feFuncG slope=".75" type="linear"/><feFuncB slope=".75" type="linear"/></feComponentTransfer></filter><path d="M1797.5 2097.5c2.27-10.31 4.44-20.65 6.5-31 .33-4.67.67-9.33 1-14a932.46 932.46 0 0 0 7-37c2.65-28.23 5.15-56.4 7.5-84.5a624.16 624.16 0 0 0-5.5-51.5c-1.33-8.67-2.67-17.33-4-26-1.4-9.82-5.4-18.49-12-26-1.94-7.42-6.11-13.08-12.5-17a184.87 184.87 0 0 0-9.5-13c-20.42-20.07-42.92-37.57-67.5-52.5-7.81-4.4-16.14-7.4-25-9-9.53-5.93-19.2-11.6-29-17-17.49-6.12-33.82-14.45-49-25-.95-.48-1.95-.65-3-.5v-3a599.26 599.26 0 0 1-39-16 437.49 437.49 0 0 1-37-13.5 1386.86 1386.86 0 0 0-98-26 7.379 7.379 0 0 1-3-2c-5.7-.17-11.36-.67-17-1.5-16.25-3.64-32.58-6.8-49-9.5-42.37-11.92-82.37-29.26-120-52-7.13-6.13-14.3-12.29-21.5-18.5-8.97-12.54-18.14-24.87-27.5-37-.98.48-1.81 1.14-2.5 2-.63 8.52-1.8 16.86-3.5 25 .11 4.82.95 9.49 2.5 14 .45 15.84.28 31.51-.5 47-1.18.22-2.18-.11-3-1a387.732 387.732 0 0 1-8.5-44c-2.19-74.52 5.31-147.52 22.5-219 .27-3.73-1.4-6.06-5-7a62.846 62.846 0 0 1-8 4c-5.34 4.75-10.67 9.58-16 14.5-5.14 2.98-10.14 6.14-15 9.5-14.5 12.33-29.17 24.5-44 36.5a502.589 502.589 0 0 0-30 23c-8.42 2.1-16.42 5.1-24 9-8.33.67-16.67.67-25 0a60.04 60.04 0 0 0-9-5c-5.79-1.73-11.46-3.73-17-6a763.761 763.761 0 0 0-39-26c-8.975-7.64-17.975-15.3-27-23a67.503 67.503 0 0 0-19-16 1925.221 1925.221 0 0 0-28-34.5c-2.265-1.15-4.598-1.31-7-.5-1.137 5.08-1.304 10.25-.5 15.5 1.668 6.39 3.335 12.72 5 19a30.337 30.337 0 0 0 5 8 380.288 380.288 0 0 0 4 22c-.106 9.5.894 18.84 3 28 .182 8.58.682 17.08 1.5 25.5-.457.41-.791.91-1 1.5 1.448 2.46 2.114 5.12 2 8a279.937 279.937 0 0 0-2.5 35c-.216 1.88-.883 3.55-2 5a135.595 135.595 0 0 1-3 26 394.367 394.367 0 0 0-9 30c-3.67 5.34-7.337 10.68-11 16-1.725 5.78-4.225 11.11-7.5 16-1.322.17-2.489-.16-3.5-1 .349-8.07 2.349-15.74 6-23a371.589 371.589 0 0 1 8.5-34.5 86.225 86.225 0 0 0 2.5-17.5c.833-.83 1.667-1.67 2.5-2.5-1.733-1.92-3.9-3.08-6.5-3.5a32.879 32.879 0 0 0-8.5 3.5c-19.857 17.59-40.69 33.76-62.5 48.5a1357.578 1357.578 0 0 0-60.5 38.5 768.94 768.94 0 0 0-33 17 1354.225 1354.225 0 0 1-63 24c-16.727 3.69-33.393 7.36-50 11a3661.84 3661.84 0 0 0-119 45 51.673 51.673 0 0 1-12 3 5099.777 5099.777 0 0 0-69 30 235.56 235.56 0 0 0-35 21.5c-1.189.93-2.522 1.26-4 1 .219 1.18-.114 2.18-1 3-31.679 19.96-54.179 47.29-67.5 82a338.653 338.653 0 0 0-11 40 7.32 7.32 0 0 1-2 3c-1.877 9.14-2.71 18.47-2.5 28a107.62 107.62 0 0 0 2 23c-1.534 7.99-2.201 16.15-2 24.5a767.496 767.496 0 0 1 2.5 44.5c1.117 1.45 1.784 3.12 2 5 4.515 35.93 12.182 70.93 23 105 .495 1.97.662 3.97.5 6-4.014.17-8.014 0-12-.5-13.231-32.14-21.731-65.64-25.5-100.5-.667-49-.667-98 0-147 6.892-28.81 19.726-54.81 38.5-78a3073.328 3073.328 0 0 1 34.5-39c22.029-17.27 46.529-30.43 73.5-39.5a15.074 15.074 0 0 0 3-3.5 668.86 668.86 0 0 0 32-13.5 428.96 428.96 0 0 1 37-12.5c-.02-1.64.647-2.98 2-4 6.368-.95 12.701-1.95 19-3-.17-1.32.163-2.49 1-3.5 9.956-2.34 19.622-5.17 29-8.5a18.478 18.478 0 0 0 5-4 83.921 83.921 0 0 0 19-4 288.719 288.719 0 0 1 44-14.5 77.125 77.125 0 0 1 14-6c9.012-1.59 18.012-3.25 27-5 22.491-6.66 43.825-16.32 64-29a42.159 42.159 0 0 0 14-5.5c5.463-2.9 10.796-6.07 16-9.5 3.928-1.8 7.928-3.3 12-4.5v-3c5.76-3.41 11.76-6.41 18-9 1.353-1.02 2.02-2.36 2-4h4c-.17-1.32.163-2.49 1-3.5 32.555-17.21 62.222-38.54 89-64a18.61 18.61 0 0 0 6.5-3.5 419.046 419.046 0 0 0 13.5-36c.075-14.58-.091-29.24-.5-44-4.937-15.86-7.937-32.19-9-49a1681.648 1681.648 0 0 1-11-32 13.24 13.24 0 0 0-5-3c-1.201-7.38-5.034-13.05-11.5-17-10.004-17.2-21.837-33.2-35.5-48a211.584 211.584 0 0 0-22-34 552.004 552.004 0 0 1-37.5-81c-1.515-4.85-4.515-8.52-9-11-.929-1.19-1.262-2.52-1-4-17.373-3.01-34.04-8.17-50-15.5-10.266-9.55-18.766-20.38-25.5-32.5-6.113-5.72-10.779-12.38-14-20l-1-6a14.506 14.506 0 0 1-5-4 837.214 837.214 0 0 0-16-35c-2.451-23.16-3.117-46.494-2-70a156.836 156.836 0 0 1 4-18c3.22-8.952 8.72-16.118 16.5-21.5 7.53-1.65 15.03-3.15 22.5-4.5.875 2.715 2.708 4.048 5.5 4 .403 3.86.736 3.693 1-.5-5.223-35.211-7.89-70.378-8-105.5a788.022 788.022 0 0 1 15.5-119 462.865 462.865 0 0 1 24-64 1067.505 1067.505 0 0 0 37-65l18-24c2.14-1.987 4.64-3.32 7.5-4l4-6a445.549 445.549 0 0 1 42-37.5 357.424 357.424 0 0 0 26-19 131.55 131.55 0 0 1 14-6.5v-3a41.355 41.355 0 0 0 12.5-5c.414.457.914.791 1.5 1 14.603-7.574 29.937-13.574 46-18a520.675 520.675 0 0 1 64-13.5c16.36-.894 32.7-2.061 49-3.5 1.05.18 2.05.513 3 1 1.86-1.493 4.03-2.16 6.5-2a61.337 61.337 0 0 0 20.5 0c7.89.275 15.55 1.442 23 3.5 15.01.167 30.01.667 45 1.5a245.397 245.397 0 0 0 30 7v3c15.12 3.686 28.79 10.353 41 20 13.22 4.482 24.22 12.149 33 23a108.58 108.58 0 0 0 14 7 211.809 211.809 0 0 1 33 29c1.3 2.258 2.3 4.592 3 7h3c-.26 1.478.07 2.811 1 4 4.02 3.69 7.69 7.69 11 12a491.364 491.364 0 0 0 21 31c3.02 3.183 6.18 6.183 9.5 9 16.08 21.667 28.75 45 38 70 8.24 25.831 15.57 52.164 22 79 2.95 22.471 6.61 44.804 11 67 .37 16.866 1.2 33.7 2.5 50.5a586.348 586.348 0 0 1-5 55c.51 12.766 4.84 14.433 13 5 3.67-.667 7.33-.667 11 0 2.71 1.747 5.71 2.747 9 3a68.622 68.622 0 0 0 5.5 6.5 206.917 206.917 0 0 1 7 24 285.772 285.772 0 0 0 4 38c1.52 18.306 2.69 36.64 3.5 55-.01 9.2-2.18 17.87-6.5 26a78.722 78.722 0 0 0-12 17c-5.11 2.83-8.11 7.17-9 13-3.21 5.55-7.21 10.55-12 15-.81 3.32-2.31 6.32-4.5 9-9.66 10.49-19.16 21.16-28.5 32a46.938 46.938 0 0 0-5.5 3.5c-7.35 2.84-14.69 5.67-22 8.5.17 1.32-.16 2.49-1 3.5-3.63.81-6.63 2.65-9 5.5-2.78 5.89-5.28 11.89-7.5 18a306.03 306.03 0 0 0-19 35c-19.18 32.69-42.68 62.03-70.5 88a75.286 75.286 0 0 1-10.5 13 57.413 57.413 0 0 1-9 15 531.586 531.586 0 0 1-14.5 41c-1.88 7.99-3.71 15.99-5.5 24a30.44 30.44 0 0 1-5 8c-9.09 33.11-9.93 66.44-2.5 100a355.86 355.86 0 0 0 14.5 38c4.59 6.3 9.43 12.47 14.5 18.5 8.17 6.34 16.51 12.5 25 18.5.89.82 1.22 1.82 1 3a327.587 327.587 0 0 1 30 16c15.39 4.01 30.06 9.85 44 17.5 12.75 2.93 25.08 6.6 37 11 16.03 2.78 32.03 5.78 48 9a727.112 727.112 0 0 0 58 15c19.26 5.91 37.93 12.91 56 21 6.33 1.67 12.67 3.33 19 5a452.983 452.983 0 0 0 48 19c45.14 23.17 90.47 46.17 136 69 16.07 9.36 32.07 18.7 48 28 5.49 4.99 11.16 9.82 17 14.5 3.99 5.16 8.49 9.83 13.5 14a90.432 90.432 0 0 1 11 19c2.48 8.12 5.15 16.12 8 24 4.28 24.28 5.62 48.95 4 74-1.05 23.8-2.38 47.46-4 71-2.52 21.53-4.52 43.2-6 65a46.085 46.085 0 0 0-2 12 36.06 36.06 0 0 0-4 8c-1.2 7.82-2.7 15.49-4.5 23h-13Z" filter="url(#a)"/><path d="M1040.5 413.5c29.34-.239 58.34 1.928 87 6.5l17 1c20.2 6.646 39.54 15.479 58 26.5a252.884 252.884 0 0 0 32 21 61.998 61.998 0 0 0 5 5.5c12.89 8.659 24.56 18.826 35 30.5 7.3 9.901 14.47 19.901 21.5 30a332.244 332.244 0 0 1 31 43 134.07 134.07 0 0 1 17 22 334.905 334.905 0 0 0 10 24 1366.043 1366.043 0 0 0 26 86c-.29 15.429.87 30.762 3.5 46 2.96 3.764 4.62 8.098 5 13 .7 14.522 1.7 29.022 3 43.5a1000.597 1000.597 0 0 0-2.5 69.5 218.107 218.107 0 0 0-2.5 20 4376.816 4376.816 0 0 1-16.5 63c-3.56 18.284-7.23 36.62-11 55a391.893 391.893 0 0 1-10 34c-2.38 16.77-6.05 33.1-11 49a125.6 125.6 0 0 0-9.5 24c-5.05 8.11-9.55 16.44-13.5 25 .32 3.64-1.02 6.3-4 8-3.12 5.45-5.79 11.12-8 17-3.3 4.65-6.64 9.31-10 14-1.58 4.65-3.24 9.32-5 14-16 18.28-30.84 37.28-44.5 57-3.42 1.9-6.75 4.06-10 6.5a433.335 433.335 0 0 1-52 47c-10.24 10.77-21.57 20.1-34 28a1801.85 1801.85 0 0 1-62 51c-7.69 4.07-15.35 8.23-23 12.5-9.67 1.33-19.33 1.33-29 0-4.25-.52-8.25-1.69-12-3.5a721.048 721.048 0 0 1-44-26 924.576 924.576 0 0 1-76.5-68.5 8837.779 8837.779 0 0 1-75.5-83 180.67 180.67 0 0 0-21.5-29 178.041 178.041 0 0 0-12-19 576.622 576.622 0 0 1-25.5-58 120.119 120.119 0 0 1-7.5-27c-4.027-5.38-6.36-11.38-7-18-4.325-8.33-7.659-17-10-26-.667-.67-1.333-1.33-2-2l-11-41c-5.874-14.476-10.374-29.476-13.5-45a97.305 97.305 0 0 0-5.5-10 590.58 590.58 0 0 1-11-68c-.216-1.884-.883-3.551-2-5a539.78 539.78 0 0 1-3-57l-3-19c-2.194-35.756-.194-71.09 6-106a7.293 7.293 0 0 0 2-3c8.026-36.667 21.193-71.334 39.5-104 16.412-26.613 35.745-50.946 58-73 .886-.825 1.219-1.825 1-3 2.106-.179 3.772-1.179 5-3 2.738-4.049 5.404-8.049 8-12 3.951-2.596 7.951-5.262 12-8 1.821-1.228 2.821-2.894 3-5a4.934 4.934 0 0 0 3-.5 302.063 302.063 0 0 1 26-20 80.383 80.383 0 0 0 20-11 784.934 784.934 0 0 1 58-26 1354.024 1354.024 0 0 1 50-10c19.62.121 38.96-1.046 58-3.5Zm375 489a18.44 18.44 0 0 1 6 .5c9.18 4.206 14.02 11.373 14.5 21.5a749.298 749.298 0 0 1 2 87c-1.17 3.68-2.33 7.35-3.5 11-2.86-.45-5.36.22-7.5 2-2.26 5.53-5.26 10.53-9 15-.49 1.63-.66 3.3-.5 5-1.32-.17-2.49.16-3.5 1-3.78 6.8-7.11 13.8-10 21-4.26 3.33-6.92 7.67-8 13a183.121 183.121 0 0 1-18.5 21c-3.81 1.66-7.64 3.32-11.5 5-2.51-.59-4.51-1.92-6-4-.67-5.33-.67-10.67 0-16 1.28-8.28 2.61-16.62 4-25 1-2.33 2-4.67 3-7 .89-9.31 3.23-18.31 7-27 1.59-16.1 3.92-32.097 7-48l3-6a85.876 85.876 0 0 1 7-26 281.345 281.345 0 0 1 8.5-32c5.02-4.35 10.36-8.35 16-12Zm-752 10c8.567-.155 15.401 3.178 20.5 10 7.648 15.281 12.982 31.281 16 48a3062.727 3062.727 0 0 0 14 44 120.736 120.736 0 0 1 3 23c2.7 7.11 5.033 14.44 7 22 .946 2.81 2.613 5.15 5 7 1.417 8.92 4.417 17.25 9 25 .667 2.67.667 5.33 0 8a72.076 72.076 0 0 0-18.5-7 664.182 664.182 0 0 1-15-11.5 57.783 57.783 0 0 0-14-14.5 2495.44 2495.44 0 0 1-31.5-49 142.952 142.952 0 0 1-6-15c-1.667-2.33-3.333-4.667-5-7a1113.27 1113.27 0 0 0-1.5-38.5 894.75 894.75 0 0 0 1.5-19.5 73.413 73.413 0 0 1 4.5-16c3.442-3.459 7.109-6.459 11-9Z"/><path d="M1797.5 2097.5h-228c-.17-4.68 0-9.35.5-14a983.41 983.41 0 0 0 6-38c2.3-27.56 5.96-54.89 11-82 .91-.83 1.58-1.83 2-3 1.57-9.51 3.57-18.84 6-28 1.61-7.58 2.61-15.25 3-23 3.74-10.91 10.58-19.24 20.5-25 2.26-1.75 3.92-3.92 5-6.5-.14-.77-.48-1.44-1-2-7.38-3.12-14.71-3.12-22 0-4.53 4.43-9.86 7.6-16 9.5-2.92 2.26-4.42 5.26-4.5 9-5.06 5.3-4.56 9.97 1.5 14 1.16 3.28 1.32 6.62.5 10-1.17 3-2.83 5.67-5 8-.41 14.06-1.58 28.06-3.5 42-2.31 1.75-2.64 3.92-1 6.5-3.95 15.07-6.95 30.07-9 45 .41.95 1.07 1.61 2 2-1.63 4.1-2.63 8.44-3 13 .46.41.79.91 1 1.5a410.308 410.308 0 0 0-3.5 31c-.5 9.99-.67 19.99-.5 30h-1004c-6.517-24.34-11.351-49.34-14.5-75l-1.5-1.5c.928-3.55.928-6.89 0-10a127.734 127.734 0 0 0-4-13.5c-.453-3.23-.453-6.56 0-10a4.473 4.473 0 0 0-1.5-2 1694.241 1694.241 0 0 0-6.5-43.5c.46-1.3.794-2.63 1-4-.881-4-1.881-8-3-12 .733-1.77 1.067-3.6 1-5.5l-12-6c-2.042-1-2.375-2.34-1-4-4.176-4.75-9.509-7.42-16-8-3.667.49-5.167 2.49-4.5 6a553.548 553.548 0 0 0 11 16c.483.95.649 1.95.5 3 2.283.11 4.283.94 6 2.5a3.947 3.947 0 0 0-1 2 14.298 14.298 0 0 1 2.5 5.5c2.547 15.28 4.88 30.62 7 46 1.756.92 1.923 2.09.5 3.5 4.32 16.97 7.32 33.97 9 51 1.656 2.2 2.822 4.7 3.5 7.5.813 6.25 2.313 12.25 4.5 18-.006 11.96 2.661 23.29 8 34h-239a18.44 18.44 0 0 0-.5-6c-10.818-34.07-18.485-69.07-23-105-.216-1.88-.883-3.55-2-5a767.496 767.496 0 0 0-2.5-44.5c-.201-8.35.466-16.51 2-24.5a107.62 107.62 0 0 1-2-23c-.21-9.53.623-18.86 2.5-28a7.32 7.32 0 0 0 2-3 338.653 338.653 0 0 1 11-40c13.321-34.71 35.821-62.04 67.5-82 .886-.82 1.219-1.82 1-3 1.478.26 2.811-.07 4-1a235.56 235.56 0 0 1 35-21.5 5099.777 5099.777 0 0 1 69-30 51.673 51.673 0 0 0 12-3 3661.84 3661.84 0 0 1 119-45c16.607-3.64 33.273-7.31 50-11a1354.225 1354.225 0 0 0 63-24 768.94 768.94 0 0 1 33-17 1357.578 1357.578 0 0 1 60.5-38.5c21.81-14.74 42.643-30.91 62.5-48.5a32.879 32.879 0 0 1 8.5-3.5c2.6.42 4.767 1.58 6.5 3.5-.833.83-1.667 1.67-2.5 2.5a86.225 86.225 0 0 1-2.5 17.5 371.589 371.589 0 0 0-8.5 34.5c-3.651 7.26-5.651 14.93-6 23 1.011.84 2.178 1.17 3.5 1 3.275-4.89 5.775-10.22 7.5-16 3.663-5.32 7.33-10.66 11-16a394.367 394.367 0 0 1 9-30 135.595 135.595 0 0 0 3-26c1.117-1.45 1.784-3.12 2-5 .102-11.73.936-23.4 2.5-35 .114-2.88-.552-5.54-2-8 .209-.59.543-1.09 1-1.5a337.693 337.693 0 0 1-1.5-25.5 118.655 118.655 0 0 1-3-28 380.288 380.288 0 0 1-4-22 30.337 30.337 0 0 1-5-8c-1.665-6.28-3.332-12.61-5-19-.804-5.25-.637-10.42.5-15.5 2.402-.81 4.735-.65 7 .5 9.44 11.36 18.773 22.86 28 34.5a67.503 67.503 0 0 1 19 16c9.025 7.7 18.025 15.36 27 23a763.761 763.761 0 0 1 39 26c5.54 2.27 11.21 4.27 17 6a60.04 60.04 0 0 1 9 5c8.33.67 16.67.67 25 0 7.58-3.9 15.58-6.9 24-9 9.71-8.04 19.71-15.71 30-23 14.83-12 29.5-24.17 44-36.5 4.86-3.36 9.86-6.52 15-9.5 5.33-4.92 10.66-9.75 16-14.5 2.75-1.14 5.42-2.47 8-4 3.6.94 5.27 3.27 5 7-17.19 71.48-24.69 144.48-22.5 219 1.98 14.82 4.82 29.49 8.5 44 .82.89 1.82 1.22 3 1 .78-15.49.95-31.16.5-47a46.073 46.073 0 0 1-2.5-14c1.7-8.14 2.87-16.48 3.5-25 .69-.86 1.52-1.52 2.5-2 9.36 12.13 18.53 24.46 27.5 37 7.2 6.21 14.37 12.37 21.5 18.5 37.63 22.74 77.63 40.08 120 52 16.42 2.7 32.75 5.86 49 9.5 5.64.83 11.3 1.33 17 1.5.83.91 1.83 1.58 3 2a1386.86 1386.86 0 0 1 98 26 437.49 437.49 0 0 0 37 13.5 599.26 599.26 0 0 0 39 16v3c1.05-.15 2.05.02 3 .5 15.18 10.55 31.51 18.88 49 25 9.8 5.4 19.47 11.07 29 17 8.86 1.6 17.19 4.6 25 9 24.58 14.93 47.08 32.43 67.5 52.5 3.35 4.18 6.51 8.52 9.5 13 6.39 3.92 10.56 9.58 12.5 17 6.6 7.51 10.6 16.18 12 26 1.33 8.67 2.67 17.33 4 26a624.16 624.16 0 0 1 5.5 51.5c-2.35 28.1-4.85 56.27-7.5 84.5a932.46 932.46 0 0 1-7 37c-.33 4.67-.67 9.33-1 14-2.06 10.35-4.23 20.69-6.5 31Z"/><path d="M1569.5 2097.5h-10c-.17-10.01 0-20.01.5-30 .78-10.45 1.95-20.78 3.5-31-.21-.59-.54-1.09-1-1.5.37-4.56 1.37-8.9 3-13-.93-.39-1.59-1.05-2-2 2.05-14.93 5.05-29.93 9-45-1.64-2.58-1.31-4.75 1-6.5 1.92-13.94 3.09-27.94 3.5-42 2.17-2.33 3.83-5 5-8 .82-3.38.66-6.72-.5-10-6.06-4.03-6.56-8.7-1.5-14 .08-3.74 1.58-6.74 4.5-9 6.14-1.9 11.47-5.07 16-9.5 7.29-3.12 14.62-3.12 22 0 .52.56.86 1.23 1 2-1.08 2.58-2.74 4.75-5 6.5-9.92 5.76-16.76 14.09-20.5 25-.39 7.75-1.39 15.42-3 23-2.43 9.16-4.43 18.49-6 28a7.379 7.379 0 0 1-2 3c-5.04 27.11-8.7 54.44-11 82a983.41 983.41 0 0 1-6 38c-.5 4.65-.67 9.32-.5 14Zm-1014 0h-11c-5.339-10.71-8.006-22.04-8-34-2.187-5.75-3.687-11.75-4.5-18-.678-2.8-1.844-5.3-3.5-7.5-1.68-17.03-4.68-34.03-9-51 1.423-1.41 1.256-2.58-.5-3.5-2.12-15.38-4.453-30.72-7-46a14.298 14.298 0 0 0-2.5-5.5c.145-.77.478-1.44 1-2-1.717-1.56-3.717-2.39-6-2.5a4.939 4.939 0 0 0-.5-3 553.548 553.548 0 0 1-11-16c-.667-3.51.833-5.51 4.5-6 6.491.58 11.824 3.25 16 8-1.375 1.66-1.042 3 1 4l12 6c.067 1.9-.267 3.73-1 5.5 1.119 4 2.119 8 3 12-.206 1.37-.54 2.7-1 4 2.338 14.36 4.505 28.86 6.5 43.5a4.473 4.473 0 0 1 1.5 2c-.453 3.44-.453 6.77 0 10 1.562 4.36 2.895 8.86 4 13.5.928 3.11.928 6.45 0 10l1.5 1.5c3.149 25.66 7.983 50.66 14.5 75Z" filter="url(#a)"/></g><g fill="#8fd4ff"><path fill="#000" d="M849.5 930.5c22.569-.773 43.569 4.227 63 15l-1 1c-25.698-10.983-52.198-14.316-79.5-10l-1.5-1a168.028 168.028 0 0 1 6.5-2m374.5-3c4.97.664 9.97 1.164 15 1.5-19.93.715-39.59 4.382-59 11a207.797 207.797 0 0 0-10 5.5c-.71-2.586.29-4.586 3-6 16.57-6.311 33.57-10.311 51-12Zm-260 65c-1.382-2.894-3.382-5.394-6-7.5a174.9 174.9 0 0 0-22-12c-1.333-.667-2.667-.667-4 0 3.054 13.708.72 26.37-7 38 9.368.75 18.701.58 28-.5 2.489-.2 4.823.3 7 1.5a5518.689 5518.689 0 0 0-56 7c-6.806 3.31-12.14 8.14-16 14.5-.589-5.31 1.744-9.15 7-11.5a70.635 70.635 0 0 0-22 2 245.634 245.634 0 0 0-19 9c-1.371 3.38-3.538 6.21-6.5 8.5.053-2.29.386-4.62 1-7a40.3 40.3 0 0 1 8.5-12.5c-19.039 1.8-37.206 6.97-54.5 15.5a230.356 230.356 0 0 0-10.5 9c-.541-2.02-.041-4.02 1.5-6a82.798 82.798 0 0 1 13.5-14.5c-2.455-1.54-5.121-1.87-8-1-6.804.93-13.471 2.43-20 4.5a3.627 3.627 0 0 1-1.5-1 108.35 108.35 0 0 0-7.5 5.5c-1 .67-2 .67-3 0a21.586 21.586 0 0 0 5-6c9.526-5.76 19.859-9.26 31-10.5a313.798 313.798 0 0 0 48-4.5c-10.392-14.79-12.725-30.788-7-48-2.658-.073-5.324.26-8 1l-18 9a880.464 880.464 0 0 1-29 20.5c-1.205 1.077-1.872 2.41-2 4a184.748 184.748 0 0 0-16 8.5c-12.14 3.71-24.307 7.21-36.5 10.5-.893-.58-1.893-.91-3-1a50.69 50.69 0 0 1-13.5 1.5 1272.55 1272.55 0 0 0 45-17 73.07 73.07 0 0 0 19-16 16.2 16.2 0 0 0-3.5-1.5 468.122 468.122 0 0 0-16 3 978.37 978.37 0 0 0-21.5-.5 22.981 22.981 0 0 1-5-2c16.079-.777 31.079-5.444 45-14-6.028-.17-12.028-.67-18-1.5a250.474 250.474 0 0 1 26-3.5 130.249 130.249 0 0 0 12-5c-8.66-.661-16.326-3.661-23-9a66.63 66.63 0 0 1 16 2.5 237.946 237.946 0 0 1 19-1.5c19.247-6.916 39.08-10.749 59.5-11.5a515.305 515.305 0 0 1 39.5 7.5 541.575 541.575 0 0 0 27 10.5 2399.764 2399.764 0 0 1 26-3.5 60.466 60.466 0 0 1-17 7.5 29.812 29.812 0 0 0-.5 5 77.01 77.01 0 0 0 19.5 16.5 215.48 215.48 0 0 1 16 19c-1.333.67-2.667.67-4 0a82.576 82.576 0 0 0-15-11.5Zm351 5c-.34-.838-1.01-1.172-2-1 0-.667-.33-1-1-1 0-.667-.33-1-1-1-13.94-13.766-30.11-24.099-48.5-31l-1.5 1c5.36 16.941 3.36 32.94-6 48 14.79 2.25 29.62 4.25 44.5 6 1.14-.49 2.31-.82 3.5-1 8.32 1.75 16.49 4.08 24.5 7 1.59 1.54 3.42 2.71 5.5 3.5 6.88 7.22 5.88 8.22-3 3-10-3.93-20.33-5.93-31-6l-1 1c6.6 5.43 11.93 11.93 16 19.5l-1 1c-12.2-10.26-26.2-17.1-42-20.5-6.21-.93-12.38-2.09-18.5-3.5-1.17.33-2.33.67-3.5 1 3.47 2.98 5.97 6.65 7.5 11 .61 2.38.95 4.71 1 7-12.65-14.07-28.48-20.57-47.5-19.5 5.26 2.35 7.59 6.19 7 11.5-4.53-5.7-9.87-10.53-16-14.5a5522.25 5522.25 0 0 0-56-7c1.24-.79 2.58-1.29 4-1.5 8.98.7 17.98 1.37 27 2 1.89.06 3.56-.44 5-1.5-3.9-3.62-6.4-8.12-7.5-13.5a57.704 57.704 0 0 1-1.5-12c.45-4.35.62-8.684.5-13-1.05-1.017-2.22-1.184-3.5-.5a544.842 544.842 0 0 0-27 16 36.285 36.285 0 0 0-4 6.5c-19.08 14.48-20.91 13.15-5.5-4l24-22a30.453 30.453 0 0 0-.5-5 60.504 60.504 0 0 1-17-7.5c8.8.971 17.64 2.138 26.5 3.5a851.54 851.54 0 0 0 27.5-10.5 515.63 515.63 0 0 1 39.5-7.5c20.42.751 40.25 4.584 59.5 11.5 6.36.247 12.7.747 19 1.5a66.639 66.639 0 0 1 16-2.5c-6.67 5.339-14.34 8.339-23 9 3.88 1.853 7.88 3.52 12 5 8.73.713 17.4 1.879 26 3.5-5.97.83-11.97 1.33-18 1.5 13.92 8.556 28.92 13.223 45 14a22.961 22.961 0 0 1-5 2c-7.46.095-14.63.261-21.5.5a469.038 469.038 0 0 0-16-3c-3.43.308-4.1 1.641-2 4a85.535 85.535 0 0 0 17.5 13.5 1272.55 1272.55 0 0 0 45 17c-4.53.11-9.03-.39-13.5-1.5-20.86-2.34-40.36-9.01-58.5-20Z"/><path d="M843.5 966.5a483.738 483.738 0 0 1 49 1.5 86.464 86.464 0 0 1 20 6c1.466 1.552 2.466 3.386 3 5.5a164.88 164.88 0 0 0 0 12.5c-.619 6.601-2.453 12.77-5.5 18.5-3.297 3.07-7.131 5.23-11.5 6.5-18.757.97-37.424.64-56-1a11.475 11.475 0 0 1-3.5-4.5 112.358 112.358 0 0 1-4.5-26.5 53.702 53.702 0 0 1 1.5-13.5c2.133-2.31 4.633-3.976 7.5-5Zm357 0c13-.167 26 0 39 .5 2.87 1.198 4.7 3.365 5.5 6.5 1.31 12.584.15 24.917-3.5 37a37.955 37.955 0 0 1-5 5.5 332.415 332.415 0 0 1-51 1c-5.84.5-10.68-1.33-14.5-5.5-6.63-10.87-8.3-22.538-5-35a55.571 55.571 0 0 1 13.5-5.5c7.12-1.589 14.12-3.089 21-4.5Z"/><path fill="#fff" d="M1298.5 997.5c.67 0 1 .333 1 1 .67 0 1 .333 1 1 .29 4.44-.21 8.77-1.5 13-2.58 3.02-5.41 5.69-8.5 8-1.19.18-2.36.51-3.5 1-14.88-1.75-29.71-3.75-44.5-6 9.36-15.06 11.36-31.059 6-48l1.5-1c18.39 6.901 34.56 17.234 48.5 31Zm-508 23c-4.804-1.93-9.304-4.6-13.5-8-1.727-3.12-2.561-6.45-2.5-10 .128-1.59.795-2.923 2-4a880.464 880.464 0 0 0 29-20.5l18-9c2.676-.74 5.342-1.073 8-1-5.725 17.212-3.392 33.21 7 48a313.798 313.798 0 0 1-48 4.5Zm346-7c-6.06-3.72-9.72-9.05-11-16a36.285 36.285 0 0 1 4-6.5 544.842 544.842 0 0 1 27-16c1.28-.684 2.45-.517 3.5.5.12 4.316-.05 8.65-.5 13 .08 4.055.58 8.055 1.5 12 1.1 5.38 3.6 9.88 7.5 13.5-1.44 1.06-3.11 1.56-5 1.5-9.02-.63-18.02-1.3-27-2Zm-185-18c.337 3.808-.163 7.47-1.5 11a61.64 61.64 0 0 0-9.5 7 143.12 143.12 0 0 1-28 .5c7.72-11.63 10.054-24.292 7-38 1.333-.667 2.667-.667 4 0a174.9 174.9 0 0 1 22 12c2.618 2.106 4.618 4.606 6 7.5Z"/></g><path fill="#000" d="M1015.5 1111.5c1.18-.22 2.18.11 3 1 2.59 5.24 5.09 10.58 7.5 16 6.01 8.7 12.01 17.37 18 26 3.82 3.57 7.82 6.9 12 10 1.34 7.04.84 14.04-1.5 21-1.31-.81-2.48-1.81-3.5-3a94.156 94.156 0 0 0-3.5-9c-5.91-2.59-11.91-5.09-18-7.5l-2.5-2.5c-.52 1.02-1.35 1.68-2.5 2-3.48-3.51-7.48-4.01-12-1.5 1.17.42 2.17 1.09 3 2a19.838 19.838 0 0 1-5 2.5c-4.03-.59-8.03-1.26-12-2-1.333-1.67-1.333-3.33 0-5 3.35-.58 6.35-1.92 9-4 2.55-.23 5.21.1 8 1 4.05-1.47 3.88-2.81-.5-4-1.73-2.8-2.9-5.8-3.5-9 1.05-7.97 3.05-15.64 6-23-.51-3.71-1.18-7.37-2-11Zm51 50c4.21-1.94 8.54-3.6 13-5 3.22.79 6.39.46 9.5-1 3.92 2.38 7.75 4.88 11.5 7.5-.95.48-1.95.65-3 .5v3c-3.03 1.08-6.03 1.08-9 0l-1-1c2.71-.73 5.38-1.56 8-2.5-1.91-1.12-3.75-1.29-5.5-.5-3.24-1.93-6.74-2.43-10.5-1.5 1.44.22 2.77.72 4 1.5-.67.33-1.33.67-2 1-4.96-.33-9.96-1-15-2Z" style="opacity:.3"/><g fill="null"><path d="M1056.5 1215.5h3v4c-2.98 1.4-6.15 2.4-9.5 3-3.86-.01-6.7-1.68-8.5-5 2.06-1.26 3.73-.76 5 1.5 2.67.67 5.33.67 8 0a18.25 18.25 0 0 0 2-3.5Z" style="opacity:.5"/><path d="M1146.5 1230.5c.79.28 1.46.78 2 1.5-3.97 4.54-4.63 4.04-2-1.5Zm-5 3c-1.27 1.29-.93 2.29 1 3a153.01 153.01 0 0 0-29.5 19c-5.73 2.78-11.23 5.95-16.5 9.5-21.29 8.57-42.96 10.57-65 6a87.245 87.245 0 0 1-21-6 731.234 731.234 0 0 1-51-24.5c-.929-1.19-1.262-2.52-1-4h3v3a109.898 109.898 0 0 0 21.5 5 951.16 951.16 0 0 0 49-10c6.73 2.13 13.4 4.47 20 7 8.2-2.29 16.2-4.96 24-8 2.45.91 4.95 1.74 7.5 2.5 11.01 1.57 22.01 3.07 33 4.5 7.33.5 14-1.33 20-5.5-1.59-.86-3.25-1.53-5-2 3.35-.39 6.68-.22 10 .5Z" style="opacity:.8"/><path fill="#fff" d="M1027.5 1237.5c4.64-.76 8.64.4 12 3.5 4.2 1.5 8.37 3 12.5 4.5 7.97-3.82 16.3-6.48 25-8 11.19 1.31 22.36 2.81 33.5 4.5 3.3.49 6.3 1.65 9 3.5-12.97 11.82-27.97 19.99-45 24.5-32.97 4.26-62.97-3.08-90-22 14.567-3.07 28.9-6.57 43-10.5Z"/><path d="M1011.5 1291.5c5.72 1.84 11.38 4.01 17 6.5 6.5.17 13 .33 19.5.5 8.24-.42 16.41-.42 24.5 0 5.07-1.24 9.57-3.58 13.5-7 .5.33 1 .67 1.5 1-3.46 5.4-8.46 8.23-15 8.5-13.37.46-26.54.63-39.5.5-7.77-.75-14.94-3.25-21.5-7.5-1.1-.77-1.1-1.6 0-2.5Z" style="opacity:.5"/></g><path fill="#1e0900" d="M920.5 868.5a431.878 431.878 0 0 1 82 5.5 6.575 6.575 0 0 1 3 3 70.35 70.35 0 0 0-4.5 6.5c-8.38 5.22-17.547 7.554-27.5 7-63.102-5.357-125.435-.524-187 14.5-14.045 5.094-28.378 8.761-43 11a26.585 26.585 0 0 1 2-3.5 342.001 342.001 0 0 1 60-22.5c37.732-11.192 76.065-18.359 115-21.5Zm230 0c38.52-1.268 76.52 2.565 114 11.5 33.96 7.16 66.63 17.993 98 32.5a11.38 11.38 0 0 1 2 2.5 4761.01 4761.01 0 0 0-73-18 965.153 965.153 0 0 0-98.5-10.5 794.366 794.366 0 0 1-68.5 2.5 98.709 98.709 0 0 1-15-5l-6-8c.67-.667 1.33-1.333 2-2 15.14-1.958 30.14-3.791 45-5.5Z"/><g fill="#5b8c63"><path d="M1928.5 2099.5h-358c.53-4.5 1.69-8.83 3.5-13 1.11-9.99 2.61-19.66 4.5-29-.21-.59-.54-1.09-1-1.5 1.46-9.61 2.8-19.28 4-29 1.32-17.81 3.82-35.64 7.5-53.5-.16-18.9 2.84-37.24 9-55 7.19-13.04 13.69-26.04 19.5-39-6.87 3.04-12.37 7.7-16.5 14a370.221 370.221 0 0 1-18 27 139.61 139.61 0 0 1-4 16c-.92 15.89-2.42 31.72-4.5 47.5.13 3.03.46 6.03 1 9-1.57 8.61-2.24 17.11-2 25.5-1.38 21.13-2.38 42.29-3 63.5.09 1.11.42 2.11 1 3a78.737 78.737 0 0 0-2 14.5h-1014a991.13 991.13 0 0 1-12.5-72 190.304 190.304 0 0 1-12-46c-6.151-10.16-13.818-19.16-23-27a1139.813 1139.813 0 0 1 17 51 541.075 541.075 0 0 1 10 45 886.35 886.35 0 0 1 13.5 49h-343a327.916 327.916 0 0 1 14.5-40c.872-7.9 3.039-15.4 6.5-22.5-.986-5.56.18-10.73 3.5-15.5a790.778 790.778 0 0 1 10-42c3.765-23.84 8.265-47.01 13.5-69.5-2.477-17.52 5.189-25.19 23-23 3.919.75 7.585 2.08 11 4 2.5.17 5 .33 7.5.5 9.077-1.06 18.077-1.06 27 0 3.436-.79 6.936-1.45 10.5-2 10.552-.26 21.052.08 31.5 1 25.974-2.84 52.141-5.01 78.5-6.5 21.01-3.82 41.843-5.65 62.5-5.5a916.741 916.741 0 0 0 34.5-3c.586.21 1.086.54 1.5 1a172.08 172.08 0 0 1 7.5-2c.586.21 1.086.54 1.5 1a398.052 398.052 0 0 1 23.5-3c1.778.07 3.611.4 5.5 1 6.667-.67 13.333-1.33 20-2 12.453.49 25.287.49 38.5 0 52.017-5.91 103.683-16.41 155-31.5a5621.461 5621.461 0 0 1 197-63c20.91-8.19 41.91-16.19 63-24 46.35-22.34 93.69-42.34 142-60a783.218 783.218 0 0 0 80-45c12.53-5.76 24.2-12.76 35-21 12.88-6.2 24.71-14.04 35.5-23.5.74-10.32 5.91-14.15 15.5-11.5 17.53 8.54 36.2 15.37 56 20.5 3.05-.49 6.05.17 9 2 .59-.21 1.09-.54 1.5-1 20.57 7.35 41.41 13.18 62.5 17.5 17.05 6.15 34.38 12.82 52 20a1361.976 1361.976 0 0 1 167 63c11.28 3.87 22.61 7.54 34 11 17.33 10.33 34.67 20.67 52 31 12.72 11.71 23.56 24.88 32.5 39.5 6.45 17.24 11.45 34.9 15 53 7.67 21.77 14.67 44.44 21 68 3.35 5.71 5.52 11.54 6.5 17.5 4.69 12.78 9.69 25.12 15 37-.76 1.36-.26 2.53 1.5 3.5.82 4.64 2.49 8.97 5 13 7.72 26.48 16.22 52.65 25.5 78.5l-1 1c4.76 10.68 9.09 21.52 13 32.5Z"/><g filter="url(#a)"><path d="M1570.5 2099.5h-1c.22-4.93.89-9.77 2-14.5-.58-.89-.91-1.89-1-3 .62-21.21 1.62-42.37 3-63.5-.24-8.39.43-16.89 2-25.5-.54-2.97-.87-5.97-1-9 2.08-15.78 3.58-31.61 4.5-47.5a139.61 139.61 0 0 0 4-16c6.39-8.73 12.39-17.73 18-27 4.13-6.3 9.63-10.96 16.5-14-5.81 12.96-12.31 25.96-19.5 39-6.16 17.76-9.16 36.1-9 55-3.68 17.86-6.18 35.69-7.5 53.5-1.2 9.72-2.54 19.39-4 29 .46.41.79.91 1 1.5-1.89 9.34-3.39 19.01-4.5 29-1.81 4.17-2.97 8.5-3.5 13Zm-1015 0h-7a886.35 886.35 0 0 0-13.5-49 541.075 541.075 0 0 0-10-45 1139.813 1139.813 0 0 0-17-51c9.182 7.84 16.849 16.84 23 27a190.304 190.304 0 0 0 12 46 991.13 991.13 0 0 0 12.5 72Z"/></g></g><g fill="#000036"><path d="M1429.5 887.5c-10.02.347-19.02 3.514-27 9.5-.73 2.058-1.73 3.891-3 5.5-.64-18.834.03-37.501 2-56-.83-1.667-1.67-3.333-2.5-5a339.52 339.52 0 0 1-6 40c-5.95 5.941-10.95 5.274-15-2-3.87-12.925-5.04-26.091-3.5-39.5a415.433 415.433 0 0 1-4.5-39.5c-.52-13.194-.19-26.194 1-39-.33-.667-.67-1.333-1-2a449.554 449.554 0 0 0-3.5 37c1.35 22.373 2.52 44.706 3.5 67-4.12-3.127-7.12-7.127-9-12a143.223 143.223 0 0 0-12-25 109.627 109.627 0 0 1-4-14 1250.082 1250.082 0 0 0-25-144 1978.143 1978.143 0 0 0-66-143 197.154 197.154 0 0 0-15-22 450.526 450.526 0 0 0 20 45c1.77 3.974 3.1 7.974 4 12-27.34-41.812-62.84-74.978-106.5-99.5a155.974 155.974 0 0 0-13-6c-1-.667-2-.667-3 0 3.67 3 7.33 6 11 9a129.99 129.99 0 0 1 23 13 944.816 944.816 0 0 0 33 25 974.876 974.876 0 0 1 36.5 37.5 1711.717 1711.717 0 0 0 39 58c6.7 16.43 14.37 32.43 23 48 4.46 12.362 9.12 24.695 14 37a1975.32 1975.32 0 0 1 20 124 488.15 488.15 0 0 0 5 21 329.507 329.507 0 0 0 29 52c.34 6.653-2.82 9.487-9.5 8.5-6.37-3.365-11.87-7.865-16.5-13.5a213.24 213.24 0 0 0-17-22c-24.01-39.339-41.01-81.673-51-127a1202.076 1202.076 0 0 1-29-91 762.04 762.04 0 0 0-25-62 304.621 304.621 0 0 1-18-29 498.796 498.796 0 0 0-16.5-21 607.09 607.09 0 0 0-23.5-18c-.17.333-.33.667-.5 1 8.12 9.854 16.96 19.187 26.5 28 32.05 41.12 53.05 87.453 63 139a684.997 684.997 0 0 1 12 33c8 26.678 16 53.345 24 80a633.845 633.845 0 0 0 19 44 510.912 510.912 0 0 1 22 39c10.57 12.627 23.91 20.96 40 25a381.602 381.602 0 0 1 20.5-5.5c.33 10.913.33 22.079 0 33.5-19.81-.125-38.48-4.625-56-13.5a385.48 385.48 0 0 0-23-13c-27.36-22.52-49.36-49.353-66-80.5-4.38-3.219-7.88-7.219-10.5-12a1529.346 1529.346 0 0 0-25-54c-13.99-25.277-27.99-50.61-42-76a888.97 888.97 0 0 1-43-57c-9.14-9.318-18.97-17.651-29.5-25-6.24-6.167-13.58-7.667-22-4.5a374.082 374.082 0 0 0-36 11c-6.03 3.01-11.7 6.51-17 10.5-1.41-2.311-3.25-4.311-5.5-6a255.894 255.894 0 0 0-10.5-25.5 8.43 8.43 0 0 1 4-.5c-.22-2.614.94-4.281 3.5-5 3.77.751 6.77 2.751 9 6 3.13 6.583 5.96 13.25 8.5 20 1.85.278 3.18-.389 4-2-2.34-11.355-7.01-21.688-14-31 3.26-18.093-1.74-33.593-15-46.5-7.77-4.191-16.102-6.691-25-7.5a259.994 259.994 0 0 0-22 4.5 14.506 14.506 0 0 0-5 4 66.87 66.87 0 0 0-5.5 1.5c-13.315-3.206-26.481-2.373-39.5 2.5a322.25 322.25 0 0 0-30 16 515.58 515.58 0 0 0-26.5 27.5 1170.768 1170.768 0 0 1-18.5 26.5 463.547 463.547 0 0 1-17.5 30.5 739.597 739.597 0 0 1-23 48l-5 16a6.547 6.547 0 0 1-3 3c-1.487-1.772-1.82-3.772-1-6a589.236 589.236 0 0 1 32-93c3.329-15.658 9.662-29.992 19-43 .722-2.161.055-3.828-2-5a529.716 529.716 0 0 0-15 27 1505.648 1505.648 0 0 0-35 101c-2.172 24.549-7.506 48.216-16 71a3651.094 3651.094 0 0 0-9.5 33c-1.822-24.722-.489-49.555 4-74.5 4.276-26.964 10.276-53.797 18-80.5l-.5-3c-11.042 22.829-18.376 46.829-22 72a913.87 913.87 0 0 0-8.5 131.5c4.663 61.448 8.83 122.948 12.5 184.5 2.09 21.72 4.59 43.39 7.5 65l1-29.5c.215-13.44-.452-26.77-2-40 .066-2.109.399-4.275 1-6.5l-2-13c.626-5.217.96-10.05 1-14.5a4325.737 4325.737 0 0 1-10.5-95.5c-5.207-35.526-2.874-70.526 7-105a7914.136 7914.136 0 0 1 40-111c13.631-31.957 31.297-61.29 53-88 16.914-17.867 36.748-31.367 59.5-40.5a84.884 84.884 0 0 1 19-2 214.1 214.1 0 0 0-14 10.5c-27.157 30.968-45.991 66.635-56.5 107a9109.862 9109.862 0 0 1-16 83 612.843 612.843 0 0 0-6 49 2900.941 2900.941 0 0 1-7 129l-1 62-2 4a6446.444 6446.444 0 0 1 2.5 87 2254.194 2254.194 0 0 0-2.5 69 232.7 232.7 0 0 1-9 47 4180.075 4180.075 0 0 1-24 69 290.063 290.063 0 0 1-35.5 45.5c-5.5 4.83-11 9.67-16.5 14.5-1.124 2.94-1.458 5.94-1 9 .536-2.37 1.703-4.37 3.5-6a435.949 435.949 0 0 0 33.5-30c8.547-11.12 16.047-22.79 22.5-35a102 102 0 0 0 6.5 11c4.802 3.96 8.635 8.63 11.5 14 8.112 17.16 14.278 35.5 18.5 55a86.215 86.215 0 0 1 8 19 88.2 88.2 0 0 1 12 22 897.293 897.293 0 0 1 12 100c1.21 6.35 2.71 12.52 4.5 18.5.309 8.38-.025 16.88-1 25.5a216.478 216.478 0 0 1 2 31.5 1122.55 1122.55 0 0 1-2.5 51.5 794.607 794.607 0 0 0-5 56 622.926 622.926 0 0 1-4.5 27.5l1 3a745.017 745.017 0 0 1-6 34.5c.333.67.667 1.33 1 2a447.52 447.52 0 0 0-1.5 62 561.146 561.146 0 0 1 1 110 325.823 325.823 0 0 1-15 57 881.215 881.215 0 0 1-19 35c.918-11.6 2.418-23.1 4.5-34.5-.769-15.3-.769-31.14 0-47.5a527.168 527.168 0 0 0-12-61.5l1.5-1.5c13.091 13.85 23.424 29.51 31 47 .718.95 1.551 1.12 2.5.5a142.27 142.27 0 0 0-11.5-31.5 819.108 819.108 0 0 0-32-37c-28.163-78.81-47.163-159.81-57-243a2144.8 2144.8 0 0 0-4.5-85c-1.478-.26-2.811.07-4 1 1.17 9.43 2.17 18.59 3 27.5-.672 35.17 2.162 70.34 8.5 105.5 11.028 62.12 26.361 122.78 46 182 .667 1.33.667 2.67 0 4a102.627 102.627 0 0 0-16-18 1965.02 1965.02 0 0 0-41.5-62.5c-19.886-43.33-34.386-88.49-43.5-135.5-3.855-35.37-7.855-70.7-12-106a66.225 66.225 0 0 1-1.5 5.5c.153 4.49.153 8.99 0 13.5 1.208 13.02 2.542 26.19 4 39.5-.551 1.4-.884 2.73-1 4 1.908 15.47 3.908 30.97 6 46.5-16.828 11.36-34.828 19.36-54 24a212.74 212.74 0 0 1-20 4.5c-1.437 2.73-3.437 3.23-6 1.5-3.92 1.27-7.92 2.44-12 3.5.333.33.667.67 1 1-3.925.06-7.425 1.23-10.5 3.5-.333-.33-.667-.67-1-1a4.939 4.939 0 0 0-.5 3c-1.901.07-3.734-.27-5.5-1-3.85 1.47-7.683 2.8-11.5 4 26.439-92.43 45.272-186.43 56.5-282 3.073-33.07 6.74-66.07 11-99a4511.95 4511.95 0 0 1 4-128c.5-23.33.667-46.66.5-70 2.148-.11 2.481.56 1 2 .84 1.23 1.84 2.23 3 3-1.333.33-1.333.67 0 1 2.475 2.27 4.475 4.94 6 8 .041 2.25.875 2.91 2.5 2 .566 2.22 1.4 4.22 2.5 6 2.53 4.95 6.196 9.61 11 14a3.595 3.595 0 0 1-1 1.5 6.97 6.97 0 0 1 2.5 3.5c.705-2.49 1.538-2.49 2.5 0-1.333.33-1.333.67 0 1 7.523 9.1 17.189 14.6 29 16.5a176.67 176.67 0 0 0 10 4.5 3.627 3.627 0 0 0 1.5-1c7.043 1.3 13.876 3.3 20.5 6-.262 1.48.071 2.81 1 4 3.297 2.96 5.964 6.29 8 10-.268 1.6.066 2.93 1 4-.172.99.162 1.66 1 2v1c-.268 1.6.066 2.93 1 4a363.75 363.75 0 0 1 10.5 69c5.731-21.05 5.398-42.05-1-63a3511.026 3511.026 0 0 0-38-109c-1.67-4.3-2.17-8.63-1.5-13a2086.733 2086.733 0 0 0-26.5-83 797.677 797.677 0 0 0-25-97l-1-2a64.218 64.218 0 0 0 0 16 503.238 503.238 0 0 1 5 31 14.444 14.444 0 0 0-5.5-2.5 112.97 112.97 0 0 0-15-.5c-.639-2.26-1.806-4.26-3.5-6a1155.672 1155.672 0 0 1 0-68 3110.658 3110.658 0 0 0 2-104 401.274 401.274 0 0 1 5-47 352.778 352.778 0 0 0 10-42c20.731-60.474 50.064-116.14 88-167a469.415 469.415 0 0 1 38.5-34.5 554.268 554.268 0 0 1 24-24c35.822-23.887 75.155-38.387 118-43.5l6 2a4.933 4.933 0 0 0 2.5-1c6.984 4.498 14.484 8.998 22.5 13.5a104.56 104.56 0 0 1 20.5 21.5c4.918 7.5 9.58 15.167 14 23a609.243 609.243 0 0 1 29 78c-.02-11.457-1.36-22.79-4-34-8.08-22.153-18.25-43.153-30.5-63a60.869 60.869 0 0 1 19-8.5c18.66-4.84 37.33-8.674 56-11.5 11.75-3.396 23.75-4.729 36-4 15.75.371 31.42.538 47 .5 9.65 2.331 19.32 4.664 29 7a226.113 226.113 0 0 0 22 10c11.8 7.406 23.47 15.073 35 23 8.83 2.413 16.83 6.413 24 12a941.448 941.448 0 0 0 40 33c3.43 4.19 7.1 8.19 11 12 1.75.471 3.41 1.138 5 2 3.67 4.333 7.33 8.667 11 13 3.74 1.738 6.91 4.238 9.5 7.5 8.79 11.228 15.79 23.561 21 37 8.2 12.735 14.53 26.401 19 41a21.58 21.58 0 0 0 5 6 409.35 409.35 0 0 1 17 48 2248.47 2248.47 0 0 0 18 82 1163.52 1163.52 0 0 1 10 79c.88 21.692.54 43.359-1 65a225.407 225.407 0 0 0-6.5 40Zm-356-313c-3 1.777-6.34 2.777-10 3 .56-1.29 1.56-2.123 3-2.5 2.31-.497 4.64-.663 7-.5Zm1 5a207.356 207.356 0 0 0-24 8.5 711.036 711.036 0 0 1 36-7 31.844 31.844 0 0 0-12-1.5Z"/><g filter="url(#a)"><path d="M1209.5 382.5c.33 1 1 1.667 2 2a31.332 31.332 0 0 0 4.5 3c5.78.171 11.28 2.005 16.5 5.5 4 3.333 7.67 7 11 11a514.43 514.43 0 0 1 19 6 338.78 338.78 0 0 1 48.5 38.5c5.25 7.915 11.75 14.415 19.5 19.5 28.73 27.783 48.9 60.949 60.5 99.5 10.52 17.507 18.02 36.007 22.5 55.5a743.015 743.015 0 0 0 17.5 69.5 330.898 330.898 0 0 1 6 48c6.35 32.923 8.68 66.256 7 100a230.345 230.345 0 0 1-9.5 43 275.91 275.91 0 0 0-3 4h-2a225.407 225.407 0 0 1 6.5-40 582.428 582.428 0 0 0 1-65 1163.52 1163.52 0 0 0-10-79 2248.47 2248.47 0 0 1-18-82 409.35 409.35 0 0 0-17-48 21.58 21.58 0 0 1-5-6c-4.47-14.599-10.8-28.265-19-41-5.21-13.439-12.21-25.772-21-37-2.59-3.262-5.76-5.762-9.5-7.5-3.67-4.333-7.33-8.667-11-13a22.961 22.961 0 0 0-5-2c-3.9-3.81-7.57-7.81-11-12a941.448 941.448 0 0 1-40-33c-7.17-5.587-15.17-9.587-24-12a1001.798 1001.798 0 0 0-35-23 226.113 226.113 0 0 1-22-10c-9.68-2.336-19.35-4.669-29-7-15.58.038-31.25-.129-47-.5-12.25-.729-24.25.604-36 4-18.67 2.826-37.34 6.66-56 11.5a60.869 60.869 0 0 0-19 8.5c12.25 19.847 22.42 40.847 30.5 63 2.64 11.21 3.98 22.543 4 34a609.243 609.243 0 0 0-29-78 403.877 403.877 0 0 0-14-23 104.56 104.56 0 0 0-20.5-21.5c-8.016-4.502-15.516-9.002-22.5-13.5a4.933 4.933 0 0 1-2.5 1l-6-2c-42.845 5.113-82.178 19.613-118 43.5a554.268 554.268 0 0 0-24 24 469.415 469.415 0 0 0-38.5 34.5c-37.936 50.86-67.269 106.526-88 167a352.778 352.778 0 0 1-10 42 401.274 401.274 0 0 0-5 47 3110.658 3110.658 0 0 1-2 104 1155.672 1155.672 0 0 0 0 68c1.694 1.74 2.861 3.74 3.5 6a112.97 112.97 0 0 1 15 .5 14.444 14.444 0 0 1 5.5 2.5 503.238 503.238 0 0 0-5-31 64.218 64.218 0 0 1 0-16l1 2a797.677 797.677 0 0 1 25 97 2086.733 2086.733 0 0 1 26.5 83c-.67 4.37-.17 8.7 1.5 13a3511.026 3511.026 0 0 1 38 109c6.398 20.95 6.731 41.95 1 63a363.75 363.75 0 0 0-10.5-69c.268-1.6-.066-2.93-1-4v-1c.172-.99-.162-1.66-1-2 .268-1.6-.066-2.93-1-4-3.552-17.49-9.386-34.16-17.5-50a7557.725 7557.725 0 0 1-19-62c-2.734-11.98-5.4-24.316-8-37-12.09-25.201-21.09-51.534-27-79-5.537-9.986-14.037-13.986-25.5-12-1.527-.073-2.527.594-3 2-2.174.42-4.174.42-6 0l4-108a196.843 196.843 0 0 0-2-17 501.236 501.236 0 0 1 2-18.5c-.697-2.709-1.03-5.376-1-8a544.301 544.301 0 0 0 1.5-32.5c1.62-10.959 3.12-22.125 4.5-33.5a3.647 3.647 0 0 1-1-1.5c6.954-40.88 18.787-80.213 35.5-118a869.826 869.826 0 0 1 58-95l20-24a2636.582 2636.582 0 0 1 46.5-42c.992.172 1.658-.162 2-1 1.333-.333 1.333-.667 0-1 .342-.838 1.008-1.172 2-1 1.333 0 2-.667 2-2a2015.47 2015.47 0 0 0 48-27.5 4605.319 4605.319 0 0 0 65-15.5c4.495-.02 9.162.146 14 .5a20.51 20.51 0 0 1 8 3l22 16a279.417 279.417 0 0 0 20.5 19.5c34.14-13.575 69.81-21.908 107-25 14.23 1.266 28.23 1.266 42 0 14.86 1.28 29.36 4.446 43.5 9.5 5.88 2.765 11.21 6.265 16 10.5Zm-136 192c-3 1.777-6.34 2.777-10 3 .56-1.29 1.56-2.123 3-2.5 2.31-.497 4.64-.663 7-.5Zm1 5c4.1-.266 8.1.234 12 1.5a711.036 711.036 0 0 0-36 7 207.356 207.356 0 0 1 24-8.5Z"/><path d="M1399.5 902.5c-.54 25.337-1.21 50.67-2 76-3.46 21.377-4.79 43.04-4 65 .39 22.77-1.28 45.44-5 68-.67 0-1 .33-1 1-2.48 24.15-4.82 48.31-7 72.5.61 4.13.11 8.3-1.5 12.5-2.16 19.53-5.16 39.19-9 59-.49 12.68-1.15 25.34-2 38a327.931 327.931 0 0 0-4 35c-.08 18.71-.91 37.38-2.5 56 .59 20.56 1.25 41.06 2 61.5-.77 2.41-1.27 4.91-1.5 7.5a615.466 615.466 0 0 1-8.5-87.5c3.8-37.63 8.64-75.13 14.5-112.5 2.06-23.97 3.73-47.97 5-72a176.26 176.26 0 0 0 4-25c2.28-34.14 5.45-67.97 9.5-101.5 1.47-30.45 3.64-60.95 6.5-91.5.29-13.017.79-26.017 1.5-39-6.74-.011-13.41-.678-20-2-2.01.514-4.01.68-6 .5 2.67-.667 2.67-1.333 0-2-23.86-4.093-45.19-13.927-64-29.5-21.97-21.234-40.81-45.567-56.5-73-20.27-28.52-36.93-59.187-50-92a698.205 698.205 0 0 0-31-53c-12.67-18-25.33-36-38-54a418.363 418.363 0 0 0-29.5-30c10.53 7.349 20.36 15.682 29.5 25a888.97 888.97 0 0 0 43 57c14.01 25.39 28.01 50.723 42 76a1529.346 1529.346 0 0 1 25 54c2.62 4.781 6.12 8.781 10.5 12 16.64 31.147 38.64 57.98 66 80.5a385.48 385.48 0 0 1 23 13c17.52 8.875 36.19 13.375 56 13.5.33-11.421.33-22.587 0-33.5a381.602 381.602 0 0 0-20.5 5.5c-16.09-4.04-29.43-12.373-40-25a510.912 510.912 0 0 0-22-39 633.845 633.845 0 0 1-19-44c-8-26.655-16-53.322-24-80a684.997 684.997 0 0 0-12-33c-9.95-51.547-30.95-97.88-63-139-9.54-8.813-18.38-18.146-26.5-28 .17-.333.33-.667.5-1a607.09 607.09 0 0 1 23.5 18 498.796 498.796 0 0 1 16.5 21 304.621 304.621 0 0 0 18 29 762.04 762.04 0 0 1 25 62 1202.076 1202.076 0 0 0 29 91c9.99 45.327 26.99 87.661 51 127a213.24 213.24 0 0 1 17 22c4.63 5.635 10.13 10.135 16.5 13.5 6.68.987 9.84-1.847 9.5-8.5a329.507 329.507 0 0 1-29-52 488.15 488.15 0 0 1-5-21 1975.32 1975.32 0 0 0-20-124 1263.213 1263.213 0 0 1-14-37 447.496 447.496 0 0 1-23-48 1711.717 1711.717 0 0 1-39-58 974.876 974.876 0 0 0-36.5-37.5 944.816 944.816 0 0 1-33-25 129.99 129.99 0 0 0-23-13c-3.67-3-7.33-6-11-9 1-.667 2-.667 3 0 4.45 1.814 8.79 3.814 13 6 43.66 24.522 79.16 57.688 106.5 99.5-.9-4.026-2.23-8.026-4-12a450.526 450.526 0 0 1-20-45 197.154 197.154 0 0 1 15 22 1978.143 1978.143 0 0 1 66 143 1250.082 1250.082 0 0 1 25 144c1.02 4.756 2.36 9.423 4 14 4.79 7.906 8.79 16.24 12 25 1.88 4.873 4.88 8.873 9 12-.98-22.294-2.15-44.627-3.5-67a449.554 449.554 0 0 1 3.5-37c.33.667.67 1.333 1 2-1.19 12.806-1.52 25.806-1 39a415.433 415.433 0 0 0 4.5 39.5c-1.54 13.409-.37 26.575 3.5 39.5 4.05 7.274 9.05 7.941 15 2a339.52 339.52 0 0 0 6-40c.83 1.667 1.67 3.333 2.5 5a399.933 399.933 0 0 0-2 56Zm-375-295c-.5 1.585-1.5 2.085-3 1.5-10.48-11.396-22.809-20.063-37-26-8.415-2.049-16.749-1.716-25 1a364.63 364.63 0 0 0-23 11 358.866 358.866 0 0 1-29 20.5 19.177 19.177 0 0 1 2.5-5c12.222-12.384 26.389-22.217 42.5-29.5a322.996 322.996 0 0 0 32-12 213.568 213.568 0 0 0 16.5-1.5c4.09 1.801 8.26 2.135 12.5 1-.33-.667-.67-1.333-1-2 2.78-1.614 4.62-3.948 5.5-7 1.72-13.181-1.28-25.181-9-36-5.73-6.005-12.729-8.672-21-8-11.325 2.221-22.158 6.054-32.5 11.5-2.308 2.36-3.808 5.194-4.5 8.5-11.649 10.979-20.982 23.646-28 38a107.126 107.126 0 0 0-17 22c2.513-8.557 6.846-16.224 13-23 6.663-14.314 15.997-26.647 28-37 .667-2 .667-4 0-6a3.943 3.943 0 0 0-2-1c-2.493 2.06-5.326 3.56-8.5 4.5-21.916 17.326-38.416 38.826-49.5 64.5a459.785 459.785 0 0 0-21.5 73 763.842 763.842 0 0 0-16.5 113 13357.083 13357.083 0 0 1-4.5 128.5c.72 12.332.053 24.666-2 37a671.164 671.164 0 0 1 2 24 426.601 426.601 0 0 0-1.5 23.5l-1 134a513.897 513.897 0 0 0-3.5 23c.646 3.78-.02 7.45-2 11-.333-1.33-.667-1.33-1 0l-1 8c-4.587 15.35-10.753 31.01-18.5 47-2.188 6.36-4.354 12.7-6.5 19-6.453 12.21-13.953 23.88-22.5 35a435.949 435.949 0 0 1-33.5 30c-1.797 1.63-2.964 3.63-3.5 6-.458-3.06-.124-6.06 1-9 5.5-4.83 11-9.67 16.5-14.5a290.063 290.063 0 0 0 35.5-45.5 4180.075 4180.075 0 0 0 24-69 232.7 232.7 0 0 0 9-47c.481-23.02 1.315-46.02 2.5-69a6446.444 6446.444 0 0 0-2.5-87l2-4 1-62a2900.941 2900.941 0 0 0 7-129 612.843 612.843 0 0 1 6-49 9109.862 9109.862 0 0 0 16-83c10.509-40.365 29.343-76.032 56.5-107a214.1 214.1 0 0 1 14-10.5 84.884 84.884 0 0 0-19 2c-22.752 9.133-42.586 22.633-59.5 40.5-21.703 26.71-39.369 56.043-53 88a7914.136 7914.136 0 0 0-40 111c-9.874 34.474-12.207 69.474-7 105a4325.737 4325.737 0 0 0 10.5 95.5c-.04 4.45-.374 9.283-1 14.5l2 13c-.601 2.225-.934 4.391-1 6.5a302.183 302.183 0 0 1 2 40l-1 29.5c-2.91-21.61-5.41-43.28-7.5-65A11424.625 11424.625 0 0 0 751.5 820a913.87 913.87 0 0 1 8.5-131.5c3.624-25.171 10.958-49.171 22-72l.5 3c-7.724 26.703-13.724 53.536-18 80.5-4.489 24.945-5.822 49.778-4 74.5a3651.094 3651.094 0 0 1 9.5-33c8.494-22.784 13.828-46.451 16-71a1505.648 1505.648 0 0 1 35-101 529.716 529.716 0 0 1 15-27c2.055 1.172 2.722 2.839 2 5-9.338 13.008-15.671 27.342-19 43a589.236 589.236 0 0 0-32 93c-.82 2.228-.487 4.228 1 6a6.547 6.547 0 0 0 3-3l5-16a739.597 739.597 0 0 0 23-48 463.547 463.547 0 0 0 17.5-30.5 1170.768 1170.768 0 0 0 18.5-26.5 515.58 515.58 0 0 1 26.5-27.5 322.25 322.25 0 0 1 30-16c13.019-4.873 26.185-5.706 39.5-2.5a66.87 66.87 0 0 1 5.5-1.5 14.506 14.506 0 0 1 5-4 259.994 259.994 0 0 1 22-4.5c8.898.809 17.23 3.309 25 7.5 13.26 12.907 18.26 28.407 15 46.5 6.99 9.312 11.66 19.645 14 31-.82 1.611-2.15 2.278-4 2a258.887 258.887 0 0 0-8.5-20c-2.23-3.249-5.23-5.249-9-6-2.56.719-3.72 2.386-3.5 5a8.43 8.43 0 0 0-4 .5 255.894 255.894 0 0 1 10.5 25.5c2.25 1.689 4.09 3.689 5.5 6Z"/><path d="M1073.5 574.5c-2.36-.163-4.69.003-7 .5-1.44.377-2.44 1.21-3 2.5-.99-.172-1.66.162-2 1a112.356 112.356 0 0 0-16.5 10c-.67-.667-.67-1.333 0-2l13.5-11.5a183.729 183.729 0 0 1 25-3.5c10.79 1.896 20.12 6.729 28 14.5-1.67.667-3.33.667-5 0-9.81-7.238-20.81-11.072-33-11.5Zm0 0c-3 1.777-6.34 2.777-10 3 .56-1.29 1.56-2.123 3-2.5 2.31-.497 4.64-.663 7-.5Zm-418 476c.167 23.34 0 46.67-.5 70a4511.95 4511.95 0 0 0-4 128c-4.26 32.93-7.927 65.93-11 99-11.228 95.57-30.061 189.57-56.5 282-2.71 1.61-5.71 2.78-9 3.5 1.196.65 1.196 1.15 0 1.5-2.01-.33-4.01-.66-6-1 5.064-7.33 8.897-15.33 11.5-24 6.383-26.11 12.55-52.11 18.5-78 1.424-2.01 2.09-4.35 2-7 .017-2.06.35-4.06 1-6 1.78-1.49 2.446-3.49 2-6v-1c1.649-4.55 3.316-9.22 5-14-.124-.61-.457-.94-1-1a44.782 44.782 0 0 1 3-11c2.865-7.64 4.531-15.64 5-24 5.407-44.49 11.074-89.16 17-134a3.595 3.595 0 0 0-1-1.5c1.333-5.67 2.667-11.33 4-17a4.922 4.922 0 0 1-1-2.5 246.62 246.62 0 0 0 2.5-22c1.635-1.74 1.802-3.58.5-5.5 1.46-12.72 3.127-25.39 5-38a53.688 53.688 0 0 0-1-6.5c2.814-13.95 4.48-28.29 5-43 .888-2.98 1.554-6.15 2-9.5-.028-1.07-.361-1.9-1-2.5-.304-.65-.637-1.32-1-2 .346-1.2.846-1.2 1.5 0-.062-5.85-.062-11.51 0-17-8.77 26.17-19.603 51.17-32.5 75 7.122-20.53 13.955-41.2 20.5-62 4.92-21.79 8.42-43.79 10.5-66 .239-8.66-.094-17.16-1-25.5a526.425 526.425 0 0 0 2.5-45.5c.936 3.27 2.936 5.6 6 7a17.746 17.746 0 0 1 1.5 7Zm855 596c-.09-1 .25-1.83 1-2.5a882.928 882.928 0 0 1-15.5-24.5c-6.72-17.11-13.72-34.11-21-51a1451.9 1451.9 0 0 1-36.5-127c.49-.95.82-1.95 1-3a1261.109 1261.109 0 0 1-18-159.5c1.12-4.9.78-10.07-1-15.5.56-14 1.23-28.5 2-43.5.33-3.68-.01-7.18-1-10.5 1.45-3.98 1.78-7.98 1-12 2.52-26.42 4.19-52.92 5-79.5-.17-7.83-.33-15.67-.5-23.5a54.79 54.79 0 0 1-2-7c-.17-6.51-.67-12.85-1.5-19 .77-2.98 1.6-5.98 2.5-9 1.47-2.37 2.64-2.37 3.5 0 .4 7.34.4 14.5 0 21.5 5.41 41.9 19.58 80.4 42.5 115.5a475.868 475.868 0 0 1 32.5 31c-.17.33-.33.67-.5 1-19.37-9.37-35.04-23.04-47-41a669.83 669.83 0 0 1-21-44c-.08 3.22-.91 6.38-2.5 9.5-.32 2.73.02 5.23 1 7.5-.67 1.67-1.33 3.33-2 5-.21 3.05.12 6.21 1 9.5a64.983 64.983 0 0 0-2.5 15.5c-.67 25.33-.67 50.67 0 76 1.93 75.98 12.76 151.32 32.5 226-.33.67-.67 1.33-1 2 12.75 34.1 25.59 68.1 38.5 102a302.232 302.232 0 0 0 32 54c.62.95.45 1.78-.5 2.5l2 2c-8.49-1.62-16.49-4.45-24-8.5Zm-225-404c-.06 43.19.94 86.36 3 129.5-.26 5.27-1.1 10.44-2.5 15.5-5.66-45.15-8.82-90.49-9.5-136 1.97-2.98 3.97-5.98 6-9 .92-1.06 1.92-1.06 3 0Zm-458 21c4.934 4.48 9.434 9.48 13.5 15a39.25 39.25 0 0 1 4.5 11c2.496 8.65 4.996 17.31 7.5 26 8.342 11.71 15.009 24.37 20 38 5.201 29.03 9.701 58.03 13.5 87a550.871 550.871 0 0 0 3.5 40c1.623 50.15.123 99.82-4.5 149-.512 15.93-2.512 31.77-6 47.5-.15 3.3-.15 6.63 0 10a465.23 465.23 0 0 0-4 20c1.825 1.47 2.325 3.3 1.5 5.5-.333-.67-.667-1.33-1-2a159.38 159.38 0 0 1-1.5 12.5c.206 1.37.54 2.7 1 4a267.586 267.586 0 0 0-5 32c1.56 9.76 2.394 19.59 2.5 29.5.546 30.34.879 60.67 1 91a347.795 347.795 0 0 1-7 43 4031.37 4031.37 0 0 1-21 68 387.352 387.352 0 0 0-6 24c-2.001 18.02-4.001 36.02-6 54-1.827-23.59-.161-46.93 5-70 3.718-10.8 6.384-21.8 8-33-4.609 8.09-10.109 15.43-16.5 22-1.858 3.29-2.525 6.62-2 10a2304.593 2304.593 0 0 0-8.5 51 285.323 285.323 0 0 0 1.5 51h-1c-5.058-10.13-7.725-20.97-8-32.5a410.766 410.766 0 0 1 7.5-56.5c.667-4 .667-8 0-12a3.627 3.627 0 0 0-1.5-1c-2.295 1.98-4.961 3.15-8 3.5-2.413 4.37-6.08 6.37-11 6a226.12 226.12 0 0 0 24.5-20.5c6.437-20.52 9.104-41.52 8-63a691.669 691.669 0 0 0-10-79 292.995 292.995 0 0 0-10-36 796.638 796.638 0 0 1-33-34 1624.219 1624.219 0 0 1-38-57c-15.757-33.27-26.257-68.1-31.5-104.5-2.23-8.78-4.23-17.61-6-26.5a4191.747 4191.747 0 0 1-6-46.5c.116-1.27.449-2.6 1-4a2393.543 2393.543 0 0 1-4-39.5c.153-4.51.153-9.01 0-13.5a66.225 66.225 0 0 0 1.5-5.5c4.145 35.3 8.145 70.63 12 106 9.114 47.01 23.614 92.17 43.5 135.5a1965.02 1965.02 0 0 1 41.5 62.5 102.627 102.627 0 0 1 16 18c.667-1.33.667-2.67 0-4-19.639-59.22-34.972-119.88-46-182-6.338-35.16-9.172-70.33-8.5-105.5-.83-8.91-1.83-18.07-3-27.5 1.189-.93 2.522-1.26 4-1a2144.8 2144.8 0 0 1 4.5 85c9.837 83.19 28.837 164.19 57 243a819.108 819.108 0 0 1 32 37 142.27 142.27 0 0 1 11.5 31.5c-.949.62-1.782.45-2.5-.5-7.576-17.49-17.909-33.15-31-47l-1.5 1.5a527.168 527.168 0 0 1 12 61.5c-.769 16.36-.769 32.2 0 47.5a342.144 342.144 0 0 0-4.5 34.5 881.215 881.215 0 0 0 19-35 325.823 325.823 0 0 0 15-57 561.146 561.146 0 0 0-1-110 447.52 447.52 0 0 1 1.5-62c-.333-.67-.667-1.33-1-2a745.017 745.017 0 0 0 6-34.5l-1-3a622.926 622.926 0 0 0 4.5-27.5 794.607 794.607 0 0 1 5-56 1122.55 1122.55 0 0 0 2.5-51.5c.098-10.58-.569-21.08-2-31.5.975-8.62 1.309-17.12 1-25.5-1.79-5.98-3.29-12.15-4.5-18.5a897.293 897.293 0 0 0-12-100 88.2 88.2 0 0 0-12-22 86.215 86.215 0 0 0-8-19c-4.222-19.5-10.388-37.84-18.5-55Zm529 344c1.32 29.16 3.16 58.16 5.5 87 .52 28.71 1.02 56.87 1.5 84.5-.7 45.54-5.54 90.71-14.5 135.5-2.67 9.34-5.34 18.68-8 28-3.43 8.61-7.43 16.95-12 25-.76 4.32-1.43 8.65-2 13a857.375 857.375 0 0 1-33 87 337.616 337.616 0 0 1-16.5 20 501.584 501.584 0 0 0 24.5-46 344.356 344.356 0 0 0 15.5-54c-.35-1.2-.85-1.2-1.5 0-15.97 19.98-33.14 39.15-51.5 57.5-1 .67-2 .67-3 0a732.514 732.514 0 0 0 59-76c-.46-15.65-.63-32.15-.5-49.5-.85-29.56-5.19-58.56-13-87l-3-6c-11.88-8.88-21.21-19.88-28-33-14.33-35.66-28.66-71.32-43-107a790.79 790.79 0 0 1-17-61c-3.39-21.82-5.56-43.48-6.5-65 .98-3.8 1.32-7.8 1-12 .06-8.02-.28-16.02-1-24 .9-.71 1.24-1.71 1-3v-6c.71-19.89 1.88-39.89 3.5-60 3.2-15.66 5.86-31.66 8-48 2.92-4.84 5.59-9.84 8-15 .67 3 .67 6 0 9-5.31 28.19-8.48 56.02-9.5 83.5-2.87 30.53-3.7 61.36-2.5 92.5a933.328 933.328 0 0 0 21 117c14.38 41.85 33.72 81.18 58 118 2.64 1.48 4.81 3.48 6.5 6a914.859 914.859 0 0 1-17.5-104c-.33-13.67-.67-27.33-1-41-3.99-14.83-6.99-30.16-9-46-17.2-64.15-24.86-129.48-23-196 2.14 31.41 5.14 62.75 9 94a894.35 894.35 0 0 0 18 90c5.7 45.04 11.7 90.04 18 135 9.05 40.26 17.72 80.59 26 121 3.75 26.69 5.42 53.35 5 80a298.647 298.647 0 0 0 14-44c4.88-27.13 8.54-54.46 11-82 .67-69.67.67-139.33 0-209-1.17-17.35-2.17-34.69-3-52 3.08 14.2 4.91 28.54 5.5 43Zm-685-188c1.328 4.96 1.995 10.29 2 16 .302 10.81-.698 21.48-3 32 .487.95.82 1.95 1 3a2248.958 2248.958 0 0 0-5.5 38c-3.02 9.1-5.02 18.43-6 28l-7 21a1700.819 1700.819 0 0 0 15-97 1488.01 1488.01 0 0 0 3.5-41Zm763 204c-1.29.24-2.29-.1-3-1a518.242 518.242 0 0 0-14.5-41c-1.87-6.62-3.54-13.28-5-20a685.895 685.895 0 0 0-6.5-44.5l1-1c-1-6.95-2-13.95-3-21 .18-2.24 1.01-2.74 2.5-1.5.33 2 .67 4 1 6 2.34 21.04 5.01 42.04 8 63a590.646 590.646 0 0 0 19.5 61Z"/></g><path d="M907.5 615.5a293.21 293.21 0 0 0-42 55 459.785 459.785 0 0 1 21.5-73c11.084-25.674 27.584-47.174 49.5-64.5 3.174-.94 6.007-2.44 8.5-4.5a3.943 3.943 0 0 1 2 1c.667 2 .667 4 0 6-12.003 10.353-21.337 22.686-28 37-6.154 6.776-10.487 14.443-13 23a107.126 107.126 0 0 1 17-22c7.018-14.354 16.351-27.021 28-38 .692-3.306 2.192-6.14 4.5-8.5 10.342-5.446 21.175-9.279 32.5-11.5 8.271-.672 15.27 1.995 21 8 7.72 10.819 10.72 22.819 9 36-.88 3.052-2.72 5.386-5.5 7 .33.667.67 1.333 1 2-4.24 1.135-8.41.801-12.5-1a213.568 213.568 0 0 1-16.5 1.5 322.996 322.996 0 0 1-32 12c-16.111 7.283-30.278 17.116-42.5 29.5a19.177 19.177 0 0 0-2.5 5Z"/><path d="M987.5 573.5a98.432 98.432 0 0 1 14 .5c-.33.333-.67.667-1 1 3.01 6.368 6.01 12.701 9 19-1.55.333-2.88-.167-4-1.5a213.643 213.643 0 0 0-12-12.5 398.244 398.244 0 0 0-15-3c3.542-.121 6.542-1.287 9-3.5Zm-227 201c.618 2.533.452 5.199-.5 8-.801-2.867-.634-5.534.5-8Zm674 109a8.394 8.394 0 0 1-.5 4c-.77 1.098-1.6 1.098-2.5 0a275.91 275.91 0 0 1 3-4Zm-60 40a102.312 102.312 0 0 0 20 2c-.71 12.983-1.21 25.983-1.5 39-2.86 30.55-5.03 61.05-6.5 91.5-4.05 33.53-7.22 67.36-9.5 101.5a176.26 176.26 0 0 1-4 25c-1.27 24.03-2.94 48.03-5 72-5.86 37.37-10.7 74.87-14.5 112.5.75 29.38 3.58 58.54 8.5 87.5.23-2.59.73-5.09 1.5-7.5-.75-20.44-1.41-40.94-2-61.5 1.59-18.62 2.42-37.29 2.5-56 .71-11.76 2.04-23.42 4-35 .85-12.66 1.51-25.32 2-38 3.84-19.81 6.84-39.47 9-59 1.61-4.2 2.11-8.37 1.5-12.5 2.18-24.19 4.52-48.35 7-72.5.67 0 1-.33 1-1 7.03-5.53 12.86-12.2 17.5-20 3.58-2.82 5.92-6.49 7-11 4.11-3.6 7.61-7.6 10.5-12 .83 6.15 1.33 12.49 1.5 19a54.79 54.79 0 0 0 2 7c.17 7.83.33 15.67.5 23.5-.81 26.58-2.48 53.08-5 79.5.78 4.02.45 8.02-1 12 .99 3.32 1.33 6.82 1 10.5-.77 15-1.44 29.5-2 43.5 1.78 5.43 2.12 10.6 1 15.5 2.61 53.52 8.61 106.69 18 159.5-.18 1.05-.51 2.05-1 3a1451.9 1451.9 0 0 0 36.5 127c7.28 16.89 14.28 33.89 21 51 5.05 8.28 10.22 16.45 15.5 24.5-.75.67-1.09 1.5-1 2.5.07.44-.1.77-.5 1a73.498 73.498 0 0 0-21-9c-.77.14-1.44.48-2 1a26.849 26.849 0 0 0-8.5-4.5c-14.83-4.58-29.5-8.41-44-11.5a590.646 590.646 0 0 1-19.5-61c-2.99-20.96-5.66-41.96-8-63-.33-2-.67-4-1-6-1.49-1.24-2.32-.74-2.5 1.5 1 7.05 2 14.05 3 21l-1 1c2.65 14.72 4.81 29.55 6.5 44.5 1.46 6.72 3.13 13.38 5 20a518.242 518.242 0 0 1 14.5 41c-2.37-.37-4.87-.37-7.5 0-1.6-2.97-3.93-3.97-7-3-2.24-.56-4.24-1.56-6-3l-1 1c-16.52-3.9-33.19-7.57-50-11-1.26.15-2.42.48-3.5 1-.59-14.46-2.42-28.8-5.5-43 .83 17.31 1.83 34.65 3 52 .67 69.67.67 139.33 0 209a930.603 930.603 0 0 1-11 82 298.647 298.647 0 0 1-14 44c.42-26.65-1.25-53.31-5-80-8.28-40.41-16.95-80.74-26-121-6.3-44.96-12.3-89.96-18-135a894.35 894.35 0 0 1-18-90c-3.86-31.25-6.86-62.59-9-94-1.86 66.52 5.8 131.85 23 196 2.01 15.84 5.01 31.17 9 46 .33 13.67.67 27.33 1 41 3.84 35.03 9.67 69.7 17.5 104a18.782 18.782 0 0 0-6.5-6c-24.28-36.82-43.62-76.15-58-118a933.328 933.328 0 0 1-21-117c-1.2-31.14-.37-61.97 2.5-92.5 1.02-27.48 4.19-55.31 9.5-83.5.67-3 .67-6 0-9a160.51 160.51 0 0 1-8 15c-2.14 16.34-4.8 32.34-8 48a1344.53 1344.53 0 0 0-3.5 60c-6.05-11.62-10.89-23.95-14.5-37-.47-5.23-1.3-10.39-2.5-15.5.86-2.42 1.19-4.75 1-7a56.055 56.055 0 0 1-2-16c1.73-15.08 3.56-30.25 5.5-45.5a25.77 25.77 0 0 0 2-8c4.07-4.55 5.9-9.71 5.5-15.5.92-.37 1.75-.87 2.5-1.5.25-3.35 1.08-6.52 2.5-9.5-.46-.41-.79-.91-1-1.5 2.02-3.9 3.35-8.06 4-12.5-.69-3.75-.02-7.25 2-10.5.6-2.61 1.43-2.61 2.5 0 1.32-10.47 5.32-20.13 12-29 .31-1.27.81-2.43 1.5-3.5l-1-1 4-4-1-1c2.51-1.42 4.84-3.09 7-5-1.21-1.89-.88-3.73 1-5.5 1.41-.47 2.07-1.47 2-3 .67 0 1-.33 1-1 .72-.42 1.22-1.08 1.5-2 .33.67.67 1.33 1 2 1.33-2.16 2.83-4.16 4.5-6 .67 0 1-.33 1-1 1.6-.79 2.27-2.12 2-4 .77-.76 1.27-1.76 1.5-3 .33.67.67 1.33 1 2 2.83-2.17 5.67-4.33 8.5-6.5 3.57-4.33 7.23-8.5 11-12.5.68 45.51 3.84 90.85 9.5 136 1.4-5.06 2.24-10.23 2.5-15.5-2.06-43.14-3.06-86.31-3-129.5a873.582 873.582 0 0 1 21.5-31c3.25-4.6 5.42-9.6 6.5-15h3c3.47-7.61 6.97-15.28 10.5-23 4.14-4.61 6.97-9.95 8.5-16 .53-.69 1.19-1.19 2-1.5l-1-1c2.78-5.73 5.95-11.23 9.5-16.5 1.77.78 3.6.61 5.5-.5.33-1 .67-2 1-3 4-1.83 8-3.67 12-5.5.69-2.21 1.86-2.54 3.5-1 1.57-1.36 3.4-2.02 5.5-2 .31-6.92-.02-13.76-1-20.5 1.48-24.99 2.81-49.99 4-75-.87-5.08-1.2-10.08-1-15 .62-5.05 1.28-10.05 2-15-.23-24.993-.23-49.659 0-74-.95-.617-1.78-.451-2.5.5a8.394 8.394 0 0 1-.5-4Zm-159 412c2.35 1.04 2.52 2.38.5 4a8.394 8.394 0 0 1-.5-4Z"/><path d="M1397.5 978.5c.41 15.274-.25 30.44-2 45.5.46.41.79.91 1 1.5-1.52 6.25-2.52 12.25-3 18-.79-21.96.54-43.623 4-65Zm-552 311a89.933 89.933 0 0 0 12.5 13c.857 5.74 3.691 10.07 8.5 13a503.493 503.493 0 0 0 10.5 29c-.119 6.44 1.048 12.61 3.5 18.5-1.242 4.16-1.242 8.33 0 12.5 2.814 5.96 4.314 12.29 4.5 19l1-4a436.97 436.97 0 0 1 .5 50 1877.673 1877.673 0 0 0-13.5-87c-4.991-13.63-11.658-26.29-20-38-2.504-8.69-5.004-17.35-7.5-26Z"/></g></svg>