<svg width="26" height="26" viewBox="0 0 26 26" fill="none" xmlns="http://www.w3.org/2000/svg">
<path d="M10.2662 17.88L9.25 21.4375L8.23375 17.88C7.97109 16.9611 7.47862 16.1242 6.80282 15.4484C6.12702 14.7726 5.29018 14.2802 4.37125 14.0175L0.8125 13L4.37 11.9838C5.28893 11.7211 6.12577 11.2286 6.80157 10.5528C7.47737 9.87702 7.96984 9.04018 8.2325 8.12125L9.25 4.5625L10.2662 8.12C10.5289 9.03892 11.0214 9.87577 11.6972 10.5516C12.373 11.2274 13.2098 11.7198 14.1287 11.9825L17.6875 13L14.13 14.0162C13.2111 14.2789 12.3742 14.7714 11.6984 15.4472C11.0226 16.123 10.5302 16.9598 10.2675 17.8787L10.2662 17.88ZM20.8238 8.89375L20.5 10.1875L20.1762 8.89375C19.9909 8.15199 19.6075 7.47453 19.067 6.93379C18.5265 6.39305 17.8492 6.00937 17.1075 5.82375L15.8125 5.5L17.1075 5.17625C17.8492 4.99063 18.5265 4.60695 19.067 4.06621C19.6075 3.52547 19.9909 2.84801 20.1762 2.10625L20.5 0.8125L20.8238 2.10625C21.0092 2.84817 21.3928 3.52574 21.9335 4.06649C22.4743 4.60724 23.1518 4.99083 23.8938 5.17625L25.1875 5.5L23.8938 5.82375C23.1518 6.00917 22.4743 6.39276 21.9335 6.93351C21.3928 7.47426 21.0092 8.15183 20.8238 8.89375ZM19.1175 23.7087L18.625 25.1875L18.1325 23.7087C17.9944 23.2945 17.7618 22.9182 17.4531 22.6094C17.1443 22.3007 16.768 22.0681 16.3537 21.93L14.875 21.4375L16.3537 20.945C16.768 20.8069 17.1443 20.5743 17.4531 20.2656C17.7618 19.9568 17.9944 19.5805 18.1325 19.1663L18.625 17.6875L19.1175 19.1663C19.2556 19.5805 19.4882 19.9568 19.7969 20.2656C20.1057 20.5743 20.482 20.8069 20.8962 20.945L22.375 21.4375L20.8962 21.93C20.482 22.0681 20.1057 22.3007 19.7969 22.6094C19.4882 22.9182 19.2556 23.2945 19.1175 23.7087Z" stroke="white" stroke-width="1.5" stroke-linecap="round" stroke-linejoin="round"/>
</svg>
