<svg width="26" height="25" viewBox="0 0 26 25" fill="none" xmlns="http://www.w3.org/2000/svg">
<path d="M7.375 15.75H10.1875ZM20.2175 3.5625C20.2312 3.625 20.2525 3.6875 20.2825 3.7475C21.0212 5.2475 21.4375 6.935 21.4375 8.71875C21.4402 10.5127 21.0119 12.2811 20.1887 13.875M20.2175 3.5625C20.1225 3.10625 20.4463 2.625 20.9363 2.625H22.0712C23.1825 2.625 24.2125 3.2725 24.5362 4.335C24.96 5.7225 25.1875 7.19375 25.1875 8.71875C25.1875 10.66 24.8188 12.5138 24.1488 14.2163C23.7663 15.1838 22.7912 15.75 21.75 15.75H20.4338C19.8438 15.75 19.5025 15.055 19.8088 14.55C19.9427 14.3294 20.0703 14.1043 20.1887 13.875M20.2175 3.5625H18.6C17.9955 3.56287 17.3949 3.46579 16.8212 3.275L12.9287 1.975C12.3551 1.78421 11.7545 1.68713 11.15 1.6875H6.13C5.3575 1.6875 4.60875 1.99625 4.12375 2.59875C1.97619 5.26096 0.807331 8.57957 0.8125 12C0.8125 12.5425 0.84125 13.0788 0.8975 13.6063C1.03375 14.8825 2.1825 15.75 3.465 15.75H7.3725C8.145 15.75 8.61125 16.655 8.27875 17.3525C7.6816 18.6093 7.37282 19.9836 7.375 21.375C7.375 22.1209 7.67132 22.8363 8.19876 23.3637C8.72621 23.8912 9.44158 24.1875 10.1875 24.1875C10.4361 24.1875 10.6746 24.0887 10.8504 23.9129C11.0262 23.7371 11.125 23.4986 11.125 23.25V22.4588C11.125 21.7425 11.2625 21.0338 11.5275 20.3688C11.9075 19.4188 12.69 18.7063 13.5938 18.225C14.9812 17.4847 16.1988 16.4629 17.1687 15.225C17.7912 14.4325 18.7013 13.875 19.7088 13.875H20.1887" fill="#BC1D1D"/>
<path d="M7.375 15.75H10.1875M20.2175 3.5625C20.2312 3.625 20.2525 3.6875 20.2825 3.7475C21.0212 5.2475 21.4375 6.935 21.4375 8.71875C21.4402 10.5127 21.0119 12.2811 20.1887 13.875M20.2175 3.5625C20.1225 3.10625 20.4463 2.625 20.9363 2.625H22.0712C23.1825 2.625 24.2125 3.2725 24.5362 4.335C24.96 5.7225 25.1875 7.19375 25.1875 8.71875C25.1875 10.66 24.8188 12.5138 24.1488 14.2163C23.7663 15.1838 22.7912 15.75 21.75 15.75H20.4338C19.8438 15.75 19.5025 15.055 19.8088 14.55C19.9427 14.3294 20.0703 14.1043 20.1887 13.875M20.2175 3.5625H18.6C17.9955 3.56287 17.3949 3.46579 16.8212 3.275L12.9287 1.975C12.3551 1.78421 11.7545 1.68713 11.15 1.6875H6.13C5.3575 1.6875 4.60875 1.99625 4.12375 2.59875C1.97619 5.26096 0.807331 8.57957 0.8125 12C0.8125 12.5425 0.84125 13.0788 0.8975 13.6063C1.03375 14.8825 2.1825 15.75 3.465 15.75H7.3725C8.145 15.75 8.61125 16.655 8.27875 17.3525C7.6816 18.6093 7.37282 19.9836 7.375 21.375C7.375 22.1209 7.67132 22.8363 8.19876 23.3637C8.72621 23.8912 9.44158 24.1875 10.1875 24.1875C10.4361 24.1875 10.6746 24.0887 10.8504 23.9129C11.0262 23.7371 11.125 23.4986 11.125 23.25V22.4588C11.125 21.7425 11.2625 21.0338 11.5275 20.3688C11.9075 19.4188 12.69 18.7063 13.5938 18.225C14.9812 17.4847 16.1988 16.4629 17.1687 15.225C17.7912 14.4325 18.7013 13.875 19.7088 13.875H20.1887" stroke="white" stroke-width="1.5" stroke-linecap="round" stroke-linejoin="round"/>
</svg>
