<svg width="26" height="25" viewBox="0 0 26 25" fill="none" xmlns="http://www.w3.org/2000/svg">
<path d="M6.29125 11.125C7.29875 11.125 8.2075 10.5675 8.83 9.775C9.80032 8.53702 11.0184 7.51523 12.4063 6.775C13.31 6.295 14.0938 5.58 14.4725 4.63125C14.7385 3.96656 14.8751 3.25719 14.875 2.54125V1.75C14.875 1.50136 14.9738 1.2629 15.1496 1.08709C15.3254 0.911272 15.5639 0.8125 15.8125 0.8125C16.5584 0.8125 17.2738 1.10882 17.8012 1.63626C18.3287 2.16371 18.625 2.87908 18.625 3.625C18.625 5.065 18.3 6.42875 17.7213 7.6475C17.3888 8.345 17.855 9.25 18.6275 9.25H22.535C23.8175 9.25 24.9663 10.1175 25.1025 11.3938C25.1588 11.9213 25.1875 12.4562 25.1875 13C25.1927 16.4204 24.0238 19.739 21.8763 22.4012C21.3913 23.0037 20.6425 23.3125 19.87 23.3125H14.85C14.2463 23.3125 13.645 23.215 13.0713 23.025L9.17875 21.725C8.60513 21.5342 8.00451 21.4372 7.4 21.4375H5.38M15.8125 9.25H18.625ZM5.38 21.4375C5.48375 21.6937 5.59625 21.9437 5.7175 22.19C5.96375 22.69 5.62 23.3125 5.06375 23.3125H3.92875C2.8175 23.3125 1.7875 22.665 1.46375 21.6025C1.03081 20.1816 0.811327 18.7042 0.812501 17.2188C0.812501 15.2775 1.18125 13.4238 1.85125 11.7213C2.23375 10.7538 3.20875 10.1875 4.25 10.1875H5.56625C6.15625 10.1875 6.4975 10.8825 6.19125 11.3875C5.12361 13.1449 4.56053 15.1624 4.56375 17.2188C4.56375 18.7113 4.85375 20.135 5.38125 21.4375H5.38Z" fill="#2082AC"/>
<path d="M6.29125 11.125C7.29875 11.125 8.2075 10.5675 8.83 9.775C9.80032 8.53702 11.0184 7.51523 12.4063 6.775C13.31 6.295 14.0938 5.58 14.4725 4.63125C14.7385 3.96656 14.8751 3.25719 14.875 2.54125V1.75C14.875 1.50136 14.9738 1.2629 15.1496 1.08709C15.3254 0.911272 15.5639 0.8125 15.8125 0.8125C16.5584 0.8125 17.2738 1.10882 17.8012 1.63626C18.3287 2.16371 18.625 2.87908 18.625 3.625C18.625 5.065 18.3 6.42875 17.7213 7.6475C17.3888 8.345 17.855 9.25 18.6275 9.25H22.535C23.8175 9.25 24.9663 10.1175 25.1025 11.3938C25.1588 11.9213 25.1875 12.4562 25.1875 13C25.1927 16.4204 24.0238 19.739 21.8763 22.4012C21.3913 23.0037 20.6425 23.3125 19.87 23.3125H14.85C14.2463 23.3125 13.645 23.215 13.0713 23.025L9.17875 21.725C8.60513 21.5342 8.00451 21.4372 7.4 21.4375H5.38M5.38 21.4375C5.48375 21.6937 5.59625 21.9437 5.7175 22.19C5.96375 22.69 5.62 23.3125 5.06375 23.3125H3.92875C2.8175 23.3125 1.7875 22.665 1.46375 21.6025C1.03081 20.1816 0.811327 18.7042 0.812501 17.2188C0.812501 15.2775 1.18125 13.4238 1.85125 11.7213C2.23375 10.7538 3.20875 10.1875 4.25 10.1875H5.56625C6.15625 10.1875 6.4975 10.8825 6.19125 11.3875C5.12361 13.1449 4.56053 15.1624 4.56375 17.2188C4.56375 18.7113 4.85375 20.135 5.38125 21.4375H5.38ZM15.8125 9.25H18.625" stroke="white" stroke-width="1.5" stroke-linecap="round" stroke-linejoin="round"/>
</svg>
