<svg width="36" height="32" viewBox="0 0 36 32" fill="none" xmlns="http://www.w3.org/2000/svg">
<path d="M24.7051 11.58H33.0251L27.7234 6.27502C26.0165 4.56814 23.8904 3.34068 21.5587 2.71603C19.2271 2.09138 16.7721 2.09157 14.4405 2.71656C12.1089 3.34155 9.98299 4.56933 8.27639 6.27647C6.56978 7.9836 5.34266 10.1099 4.71839 12.4417M2.97506 28.74V20.42M2.97506 20.42H11.2951M2.97506 20.42L8.27506 25.725C9.98192 27.4319 12.108 28.6594 14.4397 29.284C16.7714 29.9087 19.2264 29.9085 21.5579 29.2835C23.8895 28.6585 26.0155 27.4307 27.7221 25.7236C29.4287 24.0164 30.6558 21.8901 31.2801 19.5584M33.0251 3.26002V11.5767" stroke="#111112" stroke-width="4" stroke-linecap="round" stroke-linejoin="round"/>
</svg>
